<?xml version="1.0" encoding="utf-8" standalone="no"?>
<!DOCTYPE svg PUBLIC "-//W3C//DTD SVG 1.1//EN"
  "http://www.w3.org/Graphics/SVG/1.1/DTD/svg11.dtd">
<!-- Created with matplotlib (https://matplotlib.org/) -->
<svg height="720pt" version="1.1" viewBox="0 0 1080 720" width="1080pt" xmlns="http://www.w3.org/2000/svg" xmlns:xlink="http://www.w3.org/1999/xlink">
 <defs>
  <style type="text/css">
*{stroke-linecap:butt;stroke-linejoin:round;}
  </style>
 </defs>
 <g id="figure_1">
  <g id="patch_1">
   <path d="M 0 720 
L 1080 720 
L 1080 0 
L 0 0 
z
" style="fill:#ffffff;"/>
  </g>
  <g id="axes_1">
   <g id="patch_2">
    <path d="M 135 630 
L 972 630 
L 972 86.4 
L 135 86.4 
z
" style="fill:#ffffff;"/>
   </g>
   <g id="PathCollection_1">
    <defs>
     <path d="M 0 3 
C 0.795609 3 1.55874 2.683901 2.12132 2.12132 
C 2.683901 1.55874 3 0.795609 3 0 
C 3 -0.795609 2.683901 -1.55874 2.12132 -2.12132 
C 1.55874 -2.683901 0.795609 -3 0 -3 
C -0.795609 -3 -1.55874 -2.683901 -2.12132 -2.12132 
C -2.683901 -1.55874 -3 -0.795609 -3 0 
C -3 0.795609 -2.683901 1.55874 -2.12132 2.12132 
C -1.55874 2.683901 -0.795609 3 0 3 
z
" id="C0_0_7cbbe471e0"/>
    </defs>
    <g clip-path="url(#pca3a77375f)">
     <use style="fill:#440154;stroke:#440154;" x="511.0995" xlink:href="#C0_0_7cbbe471e0" y="280.181329"/>
    </g>
    <g clip-path="url(#pca3a77375f)">
     <use style="fill:#440154;stroke:#440154;" x="328.307062" xlink:href="#C0_0_7cbbe471e0" y="239.776794"/>
    </g>
    <g clip-path="url(#pca3a77375f)">
     <use style="fill:#440154;stroke:#440154;" x="676.640565" xlink:href="#C0_0_7cbbe471e0" y="371.206186"/>
    </g>
    <g clip-path="url(#pca3a77375f)">
     <use style="fill:#440154;stroke:#440154;" x="718.696126" xlink:href="#C0_0_7cbbe471e0" y="423.226067"/>
    </g>
    <g clip-path="url(#pca3a77375f)">
     <use style="fill:#440154;stroke:#440154;" x="174.295041" xlink:href="#C0_0_7cbbe471e0" y="294.090914"/>
    </g>
    <g clip-path="url(#pca3a77375f)">
     <use style="fill:#440154;stroke:#440154;" x="695.476311" xlink:href="#C0_0_7cbbe471e0" y="585.292956"/>
    </g>
    <g clip-path="url(#pca3a77375f)">
     <use style="fill:#470d60;stroke:#470d60;" x="316.001852" xlink:href="#C0_0_7cbbe471e0" y="357.891313"/>
    </g>
    <g clip-path="url(#pca3a77375f)">
     <use style="fill:#470d60;stroke:#470d60;" x="504.389268" xlink:href="#C0_0_7cbbe471e0" y="522.646319"/>
    </g>
    <g clip-path="url(#pca3a77375f)">
     <use style="fill:#470d60;stroke:#470d60;" x="393.108081" xlink:href="#C0_0_7cbbe471e0" y="518.028359"/>
    </g>
    <g clip-path="url(#pca3a77375f)">
     <use style="fill:#470d60;stroke:#470d60;" x="559.122967" xlink:href="#C0_0_7cbbe471e0" y="501.725469"/>
    </g>
    <g clip-path="url(#pca3a77375f)">
     <use style="fill:#470d60;stroke:#470d60;" x="542.432317" xlink:href="#C0_0_7cbbe471e0" y="491.300289"/>
    </g>
    <g clip-path="url(#pca3a77375f)">
     <use style="fill:#470d60;stroke:#470d60;" x="481.22981" xlink:href="#C0_0_7cbbe471e0" y="430.081867"/>
    </g>
    <g clip-path="url(#pca3a77375f)">
     <use style="fill:#481a6c;stroke:#481a6c;" x="694.907928" xlink:href="#C0_0_7cbbe471e0" y="293.420851"/>
    </g>
    <g clip-path="url(#pca3a77375f)">
     <use style="fill:#481a6c;stroke:#481a6c;" x="259.75454" xlink:href="#C0_0_7cbbe471e0" y="394.924476"/>
    </g>
    <g clip-path="url(#pca3a77375f)">
     <use style="fill:#481a6c;stroke:#481a6c;" x="627.648434" xlink:href="#C0_0_7cbbe471e0" y="346.345407"/>
    </g>
    <g clip-path="url(#pca3a77375f)">
     <use style="fill:#481a6c;stroke:#481a6c;" x="318.52086" xlink:href="#C0_0_7cbbe471e0" y="297.358875"/>
    </g>
    <g clip-path="url(#pca3a77375f)">
     <use style="fill:#481a6c;stroke:#481a6c;" x="933.788269" xlink:href="#C0_0_7cbbe471e0" y="382.100112"/>
    </g>
    <g clip-path="url(#pca3a77375f)">
     <use style="fill:#481a6c;stroke:#481a6c;" x="616.577765" xlink:href="#C0_0_7cbbe471e0" y="472.850131"/>
    </g>
    <g clip-path="url(#pca3a77375f)">
     <use style="fill:#481a6c;stroke:#481a6c;" x="580.483288" xlink:href="#C0_0_7cbbe471e0" y="510.126602"/>
    </g>
    <g clip-path="url(#pca3a77375f)">
     <use style="fill:#481a6c;stroke:#481a6c;" x="402.396162" xlink:href="#C0_0_7cbbe471e0" y="547.46013"/>
    </g>
    <g clip-path="url(#pca3a77375f)">
     <use style="fill:#46307e;stroke:#46307e;" x="643.585721" xlink:href="#C0_0_7cbbe471e0" y="162.918906"/>
    </g>
    <g clip-path="url(#pca3a77375f)">
     <use style="fill:#46307e;stroke:#46307e;" x="468.616344" xlink:href="#C0_0_7cbbe471e0" y="438.563482"/>
    </g>
    <g clip-path="url(#pca3a77375f)">
     <use style="fill:#46307e;stroke:#46307e;" x="443.670781" xlink:href="#C0_0_7cbbe471e0" y="450.457192"/>
    </g>
    <g clip-path="url(#pca3a77375f)">
     <use style="fill:#46307e;stroke:#46307e;" x="440.830764" xlink:href="#C0_0_7cbbe471e0" y="457.388902"/>
    </g>
    <g clip-path="url(#pca3a77375f)">
     <use style="fill:#46307e;stroke:#46307e;" x="396.046791" xlink:href="#C0_0_7cbbe471e0" y="232.591549"/>
    </g>
    <g clip-path="url(#pca3a77375f)">
     <use style="fill:#46307e;stroke:#46307e;" x="407.423626" xlink:href="#C0_0_7cbbe471e0" y="461.186117"/>
    </g>
    <g clip-path="url(#pca3a77375f)">
     <use style="fill:#46307e;stroke:#46307e;" x="321.092892" xlink:href="#C0_0_7cbbe471e0" y="534.039872"/>
    </g>
    <g clip-path="url(#pca3a77375f)">
     <use style="fill:#46307e;stroke:#46307e;" x="211.819131" xlink:href="#C0_0_7cbbe471e0" y="466.769623"/>
    </g>
    <g clip-path="url(#pca3a77375f)">
     <use style="fill:#46307e;stroke:#46307e;" x="855.030308" xlink:href="#C0_0_7cbbe471e0" y="216.562313"/>
    </g>
    <g clip-path="url(#pca3a77375f)">
     <use style="fill:#46307e;stroke:#46307e;" x="392.8248" xlink:href="#C0_0_7cbbe471e0" y="484.125375"/>
    </g>
    <g clip-path="url(#pca3a77375f)">
     <use style="fill:#443b84;stroke:#443b84;" x="471.807632" xlink:href="#C0_0_7cbbe471e0" y="456.392845"/>
    </g>
    <g clip-path="url(#pca3a77375f)">
     <use style="fill:#443b84;stroke:#443b84;" x="495.477477" xlink:href="#C0_0_7cbbe471e0" y="452.658184"/>
    </g>
    <g clip-path="url(#pca3a77375f)">
     <use style="fill:#443b84;stroke:#443b84;" x="477.784364" xlink:href="#C0_0_7cbbe471e0" y="449.463235"/>
    </g>
    <g clip-path="url(#pca3a77375f)">
     <use style="fill:#443b84;stroke:#443b84;" x="367.331774" xlink:href="#C0_0_7cbbe471e0" y="384.531812"/>
    </g>
    <g clip-path="url(#pca3a77375f)">
     <use style="fill:#404588;stroke:#404588;" x="265.045797" xlink:href="#C0_0_7cbbe471e0" y="208.395388"/>
    </g>
    <g clip-path="url(#pca3a77375f)">
     <use style="fill:#404588;stroke:#404588;" x="739.690546" xlink:href="#C0_0_7cbbe471e0" y="351.713604"/>
    </g>
    <g clip-path="url(#pca3a77375f)">
     <use style="fill:#404588;stroke:#404588;" x="542.151198" xlink:href="#C0_0_7cbbe471e0" y="379.654863"/>
    </g>
    <g clip-path="url(#pca3a77375f)">
     <use style="fill:#404588;stroke:#404588;" x="435.906727" xlink:href="#C0_0_7cbbe471e0" y="489.670792"/>
    </g>
    <g clip-path="url(#pca3a77375f)">
     <use style="fill:#404588;stroke:#404588;" x="687.613138" xlink:href="#C0_0_7cbbe471e0" y="131.680047"/>
    </g>
    <g clip-path="url(#pca3a77375f)">
     <use style="fill:#404588;stroke:#404588;" x="633.530472" xlink:href="#C0_0_7cbbe471e0" y="186.357031"/>
    </g>
    <g clip-path="url(#pca3a77375f)">
     <use style="fill:#3c4f8a;stroke:#3c4f8a;" x="511.805713" xlink:href="#C0_0_7cbbe471e0" y="476.315568"/>
    </g>
    <g clip-path="url(#pca3a77375f)">
     <use style="fill:#3c4f8a;stroke:#3c4f8a;" x="931.563648" xlink:href="#C0_0_7cbbe471e0" y="383.804828"/>
    </g>
    <g clip-path="url(#pca3a77375f)">
     <use style="fill:#3c4f8a;stroke:#3c4f8a;" x="612.214459" xlink:href="#C0_0_7cbbe471e0" y="301.631405"/>
    </g>
    <g clip-path="url(#pca3a77375f)">
     <use style="fill:#3c4f8a;stroke:#3c4f8a;" x="663.6492" xlink:href="#C0_0_7cbbe471e0" y="397.261447"/>
    </g>
    <g clip-path="url(#pca3a77375f)">
     <use style="fill:#3c4f8a;stroke:#3c4f8a;" x="420.504465" xlink:href="#C0_0_7cbbe471e0" y="436.335425"/>
    </g>
    <g clip-path="url(#pca3a77375f)">
     <use style="fill:#3c4f8a;stroke:#3c4f8a;" x="654.077453" xlink:href="#C0_0_7cbbe471e0" y="407.204965"/>
    </g>
    <g clip-path="url(#pca3a77375f)">
     <use style="fill:#297b8e;stroke:#297b8e;" x="819.907565" xlink:href="#C0_0_7cbbe471e0" y="526.809655"/>
    </g>
    <g clip-path="url(#pca3a77375f)">
     <use style="fill:#297b8e;stroke:#297b8e;" x="350.608955" xlink:href="#C0_0_7cbbe471e0" y="322.987756"/>
    </g>
    <g clip-path="url(#pca3a77375f)">
     <use style="fill:#297b8e;stroke:#297b8e;" x="662.822159" xlink:href="#C0_0_7cbbe471e0" y="415.66477"/>
    </g>
    <g clip-path="url(#pca3a77375f)">
     <use style="fill:#297b8e;stroke:#297b8e;" x="366.91247" xlink:href="#C0_0_7cbbe471e0" y="467.995058"/>
    </g>
    <g clip-path="url(#pca3a77375f)">
     <use style="fill:#297b8e;stroke:#297b8e;" x="459.229272" xlink:href="#C0_0_7cbbe471e0" y="486.334906"/>
    </g>
    <g clip-path="url(#pca3a77375f)">
     <use style="fill:#297b8e;stroke:#297b8e;" x="379.410664" xlink:href="#C0_0_7cbbe471e0" y="495.427274"/>
    </g>
    <g clip-path="url(#pca3a77375f)">
     <use style="fill:#25838e;stroke:#25838e;" x="585.792634" xlink:href="#C0_0_7cbbe471e0" y="276.116049"/>
    </g>
    <g clip-path="url(#pca3a77375f)">
     <use style="fill:#25838e;stroke:#25838e;" x="479.127341" xlink:href="#C0_0_7cbbe471e0" y="371.495127"/>
    </g>
    <g clip-path="url(#pca3a77375f)">
     <use style="fill:#25838e;stroke:#25838e;" x="490.342085" xlink:href="#C0_0_7cbbe471e0" y="323.204821"/>
    </g>
    <g clip-path="url(#pca3a77375f)">
     <use style="fill:#25838e;stroke:#25838e;" x="589.821569" xlink:href="#C0_0_7cbbe471e0" y="458.847337"/>
    </g>
    <g clip-path="url(#pca3a77375f)">
     <use style="fill:#25838e;stroke:#25838e;" x="531.175046" xlink:href="#C0_0_7cbbe471e0" y="344.423002"/>
    </g>
    <g clip-path="url(#pca3a77375f)">
     <use style="fill:#25838e;stroke:#25838e;" x="569.681574" xlink:href="#C0_0_7cbbe471e0" y="339.099262"/>
    </g>
    <g clip-path="url(#pca3a77375f)">
     <use style="fill:#1f948c;stroke:#1f948c;" x="173.211731" xlink:href="#C0_0_7cbbe471e0" y="292.304772"/>
    </g>
    <g clip-path="url(#pca3a77375f)">
     <use style="fill:#1f948c;stroke:#1f948c;" x="250.975684" xlink:href="#C0_0_7cbbe471e0" y="408.696248"/>
    </g>
    <g clip-path="url(#pca3a77375f)">
     <use style="fill:#1f948c;stroke:#1f948c;" x="751.051498" xlink:href="#C0_0_7cbbe471e0" y="256.426535"/>
    </g>
    <g clip-path="url(#pca3a77375f)">
     <use style="fill:#1f948c;stroke:#1f948c;" x="697.04813" xlink:href="#C0_0_7cbbe471e0" y="248.247413"/>
    </g>
    <g clip-path="url(#pca3a77375f)">
     <use style="fill:#1e9d89;stroke:#1e9d89;" x="762.980352" xlink:href="#C0_0_7cbbe471e0" y="260.211482"/>
    </g>
    <g clip-path="url(#pca3a77375f)">
     <use style="fill:#1e9d89;stroke:#1e9d89;" x="769.318254" xlink:href="#C0_0_7cbbe471e0" y="534.19278"/>
    </g>
    <g clip-path="url(#pca3a77375f)">
     <use style="fill:#1e9d89;stroke:#1e9d89;" x="458.277914" xlink:href="#C0_0_7cbbe471e0" y="316.12754"/>
    </g>
    <g clip-path="url(#pca3a77375f)">
     <use style="fill:#1e9d89;stroke:#1e9d89;" x="411.349685" xlink:href="#C0_0_7cbbe471e0" y="271.123559"/>
    </g>
    <g clip-path="url(#pca3a77375f)">
     <use style="fill:#1e9d89;stroke:#1e9d89;" x="543.608132" xlink:href="#C0_0_7cbbe471e0" y="543.926103"/>
    </g>
    <g clip-path="url(#pca3a77375f)">
     <use style="fill:#1e9d89;stroke:#1e9d89;" x="446.602058" xlink:href="#C0_0_7cbbe471e0" y="388.034254"/>
    </g>
    <g clip-path="url(#pca3a77375f)">
     <use style="fill:#21a585;stroke:#21a585;" x="497.048843" xlink:href="#C0_0_7cbbe471e0" y="555.270586"/>
    </g>
    <g clip-path="url(#pca3a77375f)">
     <use style="fill:#21a585;stroke:#21a585;" x="287.97805" xlink:href="#C0_0_7cbbe471e0" y="499.582653"/>
    </g>
    <g clip-path="url(#pca3a77375f)">
     <use style="fill:#21a585;stroke:#21a585;" x="474.422125" xlink:href="#C0_0_7cbbe471e0" y="544.398619"/>
    </g>
    <g clip-path="url(#pca3a77375f)">
     <use style="fill:#21a585;stroke:#21a585;" x="466.908602" xlink:href="#C0_0_7cbbe471e0" y="364.596781"/>
    </g>
    <g clip-path="url(#pca3a77375f)">
     <use style="fill:#21a585;stroke:#21a585;" x="566.166457" xlink:href="#C0_0_7cbbe471e0" y="360.063444"/>
    </g>
    <g clip-path="url(#pca3a77375f)">
     <use style="fill:#21a585;stroke:#21a585;" x="455.808556" xlink:href="#C0_0_7cbbe471e0" y="354.298853"/>
    </g>
    <g clip-path="url(#pca3a77375f)">
     <use style="fill:#31b57b;stroke:#31b57b;" x="696.859344" xlink:href="#C0_0_7cbbe471e0" y="605.127336"/>
    </g>
    <g clip-path="url(#pca3a77375f)">
     <use style="fill:#31b57b;stroke:#31b57b;" x="667.69281" xlink:href="#C0_0_7cbbe471e0" y="176.554511"/>
    </g>
    <g clip-path="url(#pca3a77375f)">
     <use style="fill:#31b57b;stroke:#31b57b;" x="865.083555" xlink:href="#C0_0_7cbbe471e0" y="313.424137"/>
    </g>
    <g clip-path="url(#pca3a77375f)">
     <use style="fill:#31b57b;stroke:#31b57b;" x="212.98389" xlink:href="#C0_0_7cbbe471e0" y="442.605785"/>
    </g>
    <g clip-path="url(#pca3a77375f)">
     <use style="fill:#31b57b;stroke:#31b57b;" x="822.645416" xlink:href="#C0_0_7cbbe471e0" y="452.689217"/>
    </g>
    <g clip-path="url(#pca3a77375f)">
     <use style="fill:#31b57b;stroke:#31b57b;" x="682.66677" xlink:href="#C0_0_7cbbe471e0" y="213.8148"/>
    </g>
    <g clip-path="url(#pca3a77375f)">
     <use style="fill:#3fbc73;stroke:#3fbc73;" x="626.782038" xlink:href="#C0_0_7cbbe471e0" y="231.945279"/>
    </g>
    <g clip-path="url(#pca3a77375f)">
     <use style="fill:#3fbc73;stroke:#3fbc73;" x="663.81495" xlink:href="#C0_0_7cbbe471e0" y="262.815698"/>
    </g>
    <g clip-path="url(#pca3a77375f)">
     <use style="fill:#3fbc73;stroke:#3fbc73;" x="502.085299" xlink:href="#C0_0_7cbbe471e0" y="382.004536"/>
    </g>
    <g clip-path="url(#pca3a77375f)">
     <use style="fill:#3fbc73;stroke:#3fbc73;" x="504.231004" xlink:href="#C0_0_7cbbe471e0" y="354.743724"/>
    </g>
    <g clip-path="url(#pca3a77375f)">
     <use style="fill:#50c46a;stroke:#50c46a;" x="402.792858" xlink:href="#C0_0_7cbbe471e0" y="252.293854"/>
    </g>
    <g clip-path="url(#pca3a77375f)">
     <use style="fill:#50c46a;stroke:#50c46a;" x="615.760802" xlink:href="#C0_0_7cbbe471e0" y="306.696646"/>
    </g>
    <g clip-path="url(#pca3a77375f)">
     <use style="fill:#50c46a;stroke:#50c46a;" x="627.565808" xlink:href="#C0_0_7cbbe471e0" y="541.146551"/>
    </g>
    <g clip-path="url(#pca3a77375f)">
     <use style="fill:#50c46a;stroke:#50c46a;" x="515.868082" xlink:href="#C0_0_7cbbe471e0" y="511.754954"/>
    </g>
    <g clip-path="url(#pca3a77375f)">
     <use style="fill:#50c46a;stroke:#50c46a;" x="486.89541" xlink:href="#C0_0_7cbbe471e0" y="287.336103"/>
    </g>
    <g clip-path="url(#pca3a77375f)">
     <use style="fill:#50c46a;stroke:#50c46a;" x="264.663546" xlink:href="#C0_0_7cbbe471e0" y="406.80104"/>
    </g>
    <g clip-path="url(#pca3a77375f)">
     <use style="fill:#63cb5f;stroke:#63cb5f;" x="524.632636" xlink:href="#C0_0_7cbbe471e0" y="195.515528"/>
    </g>
    <g clip-path="url(#pca3a77375f)">
     <use style="fill:#63cb5f;stroke:#63cb5f;" x="543.608546" xlink:href="#C0_0_7cbbe471e0" y="137.621937"/>
    </g>
    <g clip-path="url(#pca3a77375f)">
     <use style="fill:#63cb5f;stroke:#63cb5f;" x="320.590059" xlink:href="#C0_0_7cbbe471e0" y="425.542456"/>
    </g>
    <g clip-path="url(#pca3a77375f)">
     <use style="fill:#63cb5f;stroke:#63cb5f;" x="423.369379" xlink:href="#C0_0_7cbbe471e0" y="303.091819"/>
    </g>
    <g clip-path="url(#pca3a77375f)">
     <use style="fill:#63cb5f;stroke:#63cb5f;" x="669.438771" xlink:href="#C0_0_7cbbe471e0" y="336.183641"/>
    </g>
    <g clip-path="url(#pca3a77375f)">
     <use style="fill:#63cb5f;stroke:#63cb5f;" x="437.343055" xlink:href="#C0_0_7cbbe471e0" y="501.854187"/>
    </g>
    <g clip-path="url(#pca3a77375f)">
     <use style="fill:#bade28;stroke:#bade28;" x="563.820457" xlink:href="#C0_0_7cbbe471e0" y="216.20829"/>
    </g>
    <g clip-path="url(#pca3a77375f)">
     <use style="fill:#bade28;stroke:#bade28;" x="662.446442" xlink:href="#C0_0_7cbbe471e0" y="333.658112"/>
    </g>
    <g clip-path="url(#pca3a77375f)">
     <use style="fill:#bade28;stroke:#bade28;" x="622.875954" xlink:href="#C0_0_7cbbe471e0" y="535.13555"/>
    </g>
    <g clip-path="url(#pca3a77375f)">
     <use style="fill:#bade28;stroke:#bade28;" x="439.089896" xlink:href="#C0_0_7cbbe471e0" y="333.510237"/>
    </g>
    <g clip-path="url(#pca3a77375f)">
     <use style="fill:#fde725;stroke:#fde725;" x="671.353638" xlink:href="#C0_0_7cbbe471e0" y="111.272664"/>
    </g>
    <g clip-path="url(#pca3a77375f)">
     <use style="fill:#fde725;stroke:#fde725;" x="664.858973" xlink:href="#C0_0_7cbbe471e0" y="126.971989"/>
    </g>
    <g clip-path="url(#pca3a77375f)">
     <use style="fill:#fde725;stroke:#fde725;" x="667.842536" xlink:href="#C0_0_7cbbe471e0" y="213.112803"/>
    </g>
    <g clip-path="url(#pca3a77375f)">
     <use style="fill:#fde725;stroke:#fde725;" x="641.251342" xlink:href="#C0_0_7cbbe471e0" y="163.662158"/>
    </g>
   </g>
   <g id="matplotlib.axis_1">
    <g id="xtick_1">
     <g id="line2d_1">
      <path clip-path="url(#pca3a77375f)" d="M 157.441708 630 
L 157.441708 86.4 
" style="fill:none;stroke:#b0b0b0;stroke-linecap:square;stroke-width:0.8;"/>
     </g>
     <g id="line2d_2">
      <defs>
       <path d="M 0 0 
L 0 3.5 
" id="m4f0a3a6f47" style="stroke:#000000;stroke-width:0.8;"/>
      </defs>
      <g>
       <use style="stroke:#000000;stroke-width:0.8;" x="157.441708" xlink:href="#m4f0a3a6f47" y="630"/>
      </g>
     </g>
     <g id="text_1">
      <!-- −10.0 -->
      <defs>
       <path d="M 10.59375 35.5 
L 73.1875 35.5 
L 73.1875 27.203125 
L 10.59375 27.203125 
z
" id="DejaVuSans-8722"/>
       <path d="M 12.40625 8.296875 
L 28.515625 8.296875 
L 28.515625 63.921875 
L 10.984375 60.40625 
L 10.984375 69.390625 
L 28.421875 72.90625 
L 38.28125 72.90625 
L 38.28125 8.296875 
L 54.390625 8.296875 
L 54.390625 0 
L 12.40625 0 
z
" id="DejaVuSans-49"/>
       <path d="M 31.78125 66.40625 
Q 24.171875 66.40625 20.328125 58.90625 
Q 16.5 51.421875 16.5 36.375 
Q 16.5 21.390625 20.328125 13.890625 
Q 24.171875 6.390625 31.78125 6.390625 
Q 39.453125 6.390625 43.28125 13.890625 
Q 47.125 21.390625 47.125 36.375 
Q 47.125 51.421875 43.28125 58.90625 
Q 39.453125 66.40625 31.78125 66.40625 
z
M 31.78125 74.21875 
Q 44.046875 74.21875 50.515625 64.515625 
Q 56.984375 54.828125 56.984375 36.375 
Q 56.984375 17.96875 50.515625 8.265625 
Q 44.046875 -1.421875 31.78125 -1.421875 
Q 19.53125 -1.421875 13.0625 8.265625 
Q 6.59375 17.96875 6.59375 36.375 
Q 6.59375 54.828125 13.0625 64.515625 
Q 19.53125 74.21875 31.78125 74.21875 
z
" id="DejaVuSans-48"/>
       <path d="M 10.6875 12.40625 
L 21 12.40625 
L 21 0 
L 10.6875 0 
z
" id="DejaVuSans-46"/>
      </defs>
      <g transform="translate(142.119051 644.598438)scale(0.1 -0.1)">
       <use xlink:href="#DejaVuSans-8722"/>
       <use x="83.789062" xlink:href="#DejaVuSans-49"/>
       <use x="147.412109" xlink:href="#DejaVuSans-48"/>
       <use x="211.035156" xlink:href="#DejaVuSans-46"/>
       <use x="242.822266" xlink:href="#DejaVuSans-48"/>
      </g>
     </g>
    </g>
    <g id="xtick_2">
     <g id="line2d_3">
      <path clip-path="url(#pca3a77375f)" d="M 273.419506 630 
L 273.419506 86.4 
" style="fill:none;stroke:#b0b0b0;stroke-linecap:square;stroke-width:0.8;"/>
     </g>
     <g id="line2d_4">
      <g>
       <use style="stroke:#000000;stroke-width:0.8;" x="273.419506" xlink:href="#m4f0a3a6f47" y="630"/>
      </g>
     </g>
     <g id="text_2">
      <!-- −7.5 -->
      <defs>
       <path d="M 8.203125 72.90625 
L 55.078125 72.90625 
L 55.078125 68.703125 
L 28.609375 0 
L 18.3125 0 
L 43.21875 64.59375 
L 8.203125 64.59375 
z
" id="DejaVuSans-55"/>
       <path d="M 10.796875 72.90625 
L 49.515625 72.90625 
L 49.515625 64.59375 
L 19.828125 64.59375 
L 19.828125 46.734375 
Q 21.96875 47.46875 24.109375 47.828125 
Q 26.265625 48.1875 28.421875 48.1875 
Q 40.625 48.1875 47.75 41.5 
Q 54.890625 34.8125 54.890625 23.390625 
Q 54.890625 11.625 47.5625 5.09375 
Q 40.234375 -1.421875 26.90625 -1.421875 
Q 22.3125 -1.421875 17.546875 -0.640625 
Q 12.796875 0.140625 7.71875 1.703125 
L 7.71875 11.625 
Q 12.109375 9.234375 16.796875 8.0625 
Q 21.484375 6.890625 26.703125 6.890625 
Q 35.15625 6.890625 40.078125 11.328125 
Q 45.015625 15.765625 45.015625 23.390625 
Q 45.015625 31 40.078125 35.4375 
Q 35.15625 39.890625 26.703125 39.890625 
Q 22.75 39.890625 18.8125 39.015625 
Q 14.890625 38.140625 10.796875 36.28125 
z
" id="DejaVuSans-53"/>
      </defs>
      <g transform="translate(261.2781 644.598438)scale(0.1 -0.1)">
       <use xlink:href="#DejaVuSans-8722"/>
       <use x="83.789062" xlink:href="#DejaVuSans-55"/>
       <use x="147.412109" xlink:href="#DejaVuSans-46"/>
       <use x="179.199219" xlink:href="#DejaVuSans-53"/>
      </g>
     </g>
    </g>
    <g id="xtick_3">
     <g id="line2d_5">
      <path clip-path="url(#pca3a77375f)" d="M 389.397304 630 
L 389.397304 86.4 
" style="fill:none;stroke:#b0b0b0;stroke-linecap:square;stroke-width:0.8;"/>
     </g>
     <g id="line2d_6">
      <g>
       <use style="stroke:#000000;stroke-width:0.8;" x="389.397304" xlink:href="#m4f0a3a6f47" y="630"/>
      </g>
     </g>
     <g id="text_3">
      <!-- −5.0 -->
      <g transform="translate(377.255898 644.598438)scale(0.1 -0.1)">
       <use xlink:href="#DejaVuSans-8722"/>
       <use x="83.789062" xlink:href="#DejaVuSans-53"/>
       <use x="147.412109" xlink:href="#DejaVuSans-46"/>
       <use x="179.199219" xlink:href="#DejaVuSans-48"/>
      </g>
     </g>
    </g>
    <g id="xtick_4">
     <g id="line2d_7">
      <path clip-path="url(#pca3a77375f)" d="M 505.375102 630 
L 505.375102 86.4 
" style="fill:none;stroke:#b0b0b0;stroke-linecap:square;stroke-width:0.8;"/>
     </g>
     <g id="line2d_8">
      <g>
       <use style="stroke:#000000;stroke-width:0.8;" x="505.375102" xlink:href="#m4f0a3a6f47" y="630"/>
      </g>
     </g>
     <g id="text_4">
      <!-- −2.5 -->
      <defs>
       <path d="M 19.1875 8.296875 
L 53.609375 8.296875 
L 53.609375 0 
L 7.328125 0 
L 7.328125 8.296875 
Q 12.9375 14.109375 22.625 23.890625 
Q 32.328125 33.6875 34.8125 36.53125 
Q 39.546875 41.84375 41.421875 45.53125 
Q 43.3125 49.21875 43.3125 52.78125 
Q 43.3125 58.59375 39.234375 62.25 
Q 35.15625 65.921875 28.609375 65.921875 
Q 23.96875 65.921875 18.8125 64.3125 
Q 13.671875 62.703125 7.8125 59.421875 
L 7.8125 69.390625 
Q 13.765625 71.78125 18.9375 73 
Q 24.125 74.21875 28.421875 74.21875 
Q 39.75 74.21875 46.484375 68.546875 
Q 53.21875 62.890625 53.21875 53.421875 
Q 53.21875 48.921875 51.53125 44.890625 
Q 49.859375 40.875 45.40625 35.40625 
Q 44.1875 33.984375 37.640625 27.21875 
Q 31.109375 20.453125 19.1875 8.296875 
z
" id="DejaVuSans-50"/>
      </defs>
      <g transform="translate(493.233696 644.598438)scale(0.1 -0.1)">
       <use xlink:href="#DejaVuSans-8722"/>
       <use x="83.789062" xlink:href="#DejaVuSans-50"/>
       <use x="147.412109" xlink:href="#DejaVuSans-46"/>
       <use x="179.199219" xlink:href="#DejaVuSans-53"/>
      </g>
     </g>
    </g>
    <g id="xtick_5">
     <g id="line2d_9">
      <path clip-path="url(#pca3a77375f)" d="M 621.352901 630 
L 621.352901 86.4 
" style="fill:none;stroke:#b0b0b0;stroke-linecap:square;stroke-width:0.8;"/>
     </g>
     <g id="line2d_10">
      <g>
       <use style="stroke:#000000;stroke-width:0.8;" x="621.352901" xlink:href="#m4f0a3a6f47" y="630"/>
      </g>
     </g>
     <g id="text_5">
      <!-- 0.0 -->
      <g transform="translate(613.401338 644.598438)scale(0.1 -0.1)">
       <use xlink:href="#DejaVuSans-48"/>
       <use x="63.623047" xlink:href="#DejaVuSans-46"/>
       <use x="95.410156" xlink:href="#DejaVuSans-48"/>
      </g>
     </g>
    </g>
    <g id="xtick_6">
     <g id="line2d_11">
      <path clip-path="url(#pca3a77375f)" d="M 737.330699 630 
L 737.330699 86.4 
" style="fill:none;stroke:#b0b0b0;stroke-linecap:square;stroke-width:0.8;"/>
     </g>
     <g id="line2d_12">
      <g>
       <use style="stroke:#000000;stroke-width:0.8;" x="737.330699" xlink:href="#m4f0a3a6f47" y="630"/>
      </g>
     </g>
     <g id="text_6">
      <!-- 2.5 -->
      <g transform="translate(729.379136 644.598438)scale(0.1 -0.1)">
       <use xlink:href="#DejaVuSans-50"/>
       <use x="63.623047" xlink:href="#DejaVuSans-46"/>
       <use x="95.410156" xlink:href="#DejaVuSans-53"/>
      </g>
     </g>
    </g>
    <g id="xtick_7">
     <g id="line2d_13">
      <path clip-path="url(#pca3a77375f)" d="M 853.308497 630 
L 853.308497 86.4 
" style="fill:none;stroke:#b0b0b0;stroke-linecap:square;stroke-width:0.8;"/>
     </g>
     <g id="line2d_14">
      <g>
       <use style="stroke:#000000;stroke-width:0.8;" x="853.308497" xlink:href="#m4f0a3a6f47" y="630"/>
      </g>
     </g>
     <g id="text_7">
      <!-- 5.0 -->
      <g transform="translate(845.356935 644.598438)scale(0.1 -0.1)">
       <use xlink:href="#DejaVuSans-53"/>
       <use x="63.623047" xlink:href="#DejaVuSans-46"/>
       <use x="95.410156" xlink:href="#DejaVuSans-48"/>
      </g>
     </g>
    </g>
    <g id="xtick_8">
     <g id="line2d_15">
      <path clip-path="url(#pca3a77375f)" d="M 969.286295 630 
L 969.286295 86.4 
" style="fill:none;stroke:#b0b0b0;stroke-linecap:square;stroke-width:0.8;"/>
     </g>
     <g id="line2d_16">
      <g>
       <use style="stroke:#000000;stroke-width:0.8;" x="969.286295" xlink:href="#m4f0a3a6f47" y="630"/>
      </g>
     </g>
     <g id="text_8">
      <!-- 7.5 -->
      <g transform="translate(961.334733 644.598438)scale(0.1 -0.1)">
       <use xlink:href="#DejaVuSans-55"/>
       <use x="63.623047" xlink:href="#DejaVuSans-46"/>
       <use x="95.410156" xlink:href="#DejaVuSans-53"/>
      </g>
     </g>
    </g>
   </g>
   <g id="matplotlib.axis_2">
    <g id="ytick_1">
     <g id="line2d_17">
      <path clip-path="url(#pca3a77375f)" d="M 135 619.675438 
L 972 619.675438 
" style="fill:none;stroke:#b0b0b0;stroke-linecap:square;stroke-width:0.8;"/>
     </g>
     <g id="line2d_18">
      <defs>
       <path d="M 0 0 
L -3.5 0 
" id="m1244e89af3" style="stroke:#000000;stroke-width:0.8;"/>
      </defs>
      <g>
       <use style="stroke:#000000;stroke-width:0.8;" x="135" xlink:href="#m1244e89af3" y="619.675438"/>
      </g>
     </g>
     <g id="text_9">
      <!-- −7.5 -->
      <g transform="translate(103.717187 623.474657)scale(0.1 -0.1)">
       <use xlink:href="#DejaVuSans-8722"/>
       <use x="83.789062" xlink:href="#DejaVuSans-55"/>
       <use x="147.412109" xlink:href="#DejaVuSans-46"/>
       <use x="179.199219" xlink:href="#DejaVuSans-53"/>
      </g>
     </g>
    </g>
    <g id="ytick_2">
     <g id="line2d_19">
      <path clip-path="url(#pca3a77375f)" d="M 135 545.576652 
L 972 545.576652 
" style="fill:none;stroke:#b0b0b0;stroke-linecap:square;stroke-width:0.8;"/>
     </g>
     <g id="line2d_20">
      <g>
       <use style="stroke:#000000;stroke-width:0.8;" x="135" xlink:href="#m1244e89af3" y="545.576652"/>
      </g>
     </g>
     <g id="text_10">
      <!-- −5.0 -->
      <g transform="translate(103.717187 549.375871)scale(0.1 -0.1)">
       <use xlink:href="#DejaVuSans-8722"/>
       <use x="83.789062" xlink:href="#DejaVuSans-53"/>
       <use x="147.412109" xlink:href="#DejaVuSans-46"/>
       <use x="179.199219" xlink:href="#DejaVuSans-48"/>
      </g>
     </g>
    </g>
    <g id="ytick_3">
     <g id="line2d_21">
      <path clip-path="url(#pca3a77375f)" d="M 135 471.477865 
L 972 471.477865 
" style="fill:none;stroke:#b0b0b0;stroke-linecap:square;stroke-width:0.8;"/>
     </g>
     <g id="line2d_22">
      <g>
       <use style="stroke:#000000;stroke-width:0.8;" x="135" xlink:href="#m1244e89af3" y="471.477865"/>
      </g>
     </g>
     <g id="text_11">
      <!-- −2.5 -->
      <g transform="translate(103.717187 475.277084)scale(0.1 -0.1)">
       <use xlink:href="#DejaVuSans-8722"/>
       <use x="83.789062" xlink:href="#DejaVuSans-50"/>
       <use x="147.412109" xlink:href="#DejaVuSans-46"/>
       <use x="179.199219" xlink:href="#DejaVuSans-53"/>
      </g>
     </g>
    </g>
    <g id="ytick_4">
     <g id="line2d_23">
      <path clip-path="url(#pca3a77375f)" d="M 135 397.379079 
L 972 397.379079 
" style="fill:none;stroke:#b0b0b0;stroke-linecap:square;stroke-width:0.8;"/>
     </g>
     <g id="line2d_24">
      <g>
       <use style="stroke:#000000;stroke-width:0.8;" x="135" xlink:href="#m1244e89af3" y="397.379079"/>
      </g>
     </g>
     <g id="text_12">
      <!-- 0.0 -->
      <g transform="translate(112.096875 401.178298)scale(0.1 -0.1)">
       <use xlink:href="#DejaVuSans-48"/>
       <use x="63.623047" xlink:href="#DejaVuSans-46"/>
       <use x="95.410156" xlink:href="#DejaVuSans-48"/>
      </g>
     </g>
    </g>
    <g id="ytick_5">
     <g id="line2d_25">
      <path clip-path="url(#pca3a77375f)" d="M 135 323.280293 
L 972 323.280293 
" style="fill:none;stroke:#b0b0b0;stroke-linecap:square;stroke-width:0.8;"/>
     </g>
     <g id="line2d_26">
      <g>
       <use style="stroke:#000000;stroke-width:0.8;" x="135" xlink:href="#m1244e89af3" y="323.280293"/>
      </g>
     </g>
     <g id="text_13">
      <!-- 2.5 -->
      <g transform="translate(112.096875 327.079511)scale(0.1 -0.1)">
       <use xlink:href="#DejaVuSans-50"/>
       <use x="63.623047" xlink:href="#DejaVuSans-46"/>
       <use x="95.410156" xlink:href="#DejaVuSans-53"/>
      </g>
     </g>
    </g>
    <g id="ytick_6">
     <g id="line2d_27">
      <path clip-path="url(#pca3a77375f)" d="M 135 249.181506 
L 972 249.181506 
" style="fill:none;stroke:#b0b0b0;stroke-linecap:square;stroke-width:0.8;"/>
     </g>
     <g id="line2d_28">
      <g>
       <use style="stroke:#000000;stroke-width:0.8;" x="135" xlink:href="#m1244e89af3" y="249.181506"/>
      </g>
     </g>
     <g id="text_14">
      <!-- 5.0 -->
      <g transform="translate(112.096875 252.980725)scale(0.1 -0.1)">
       <use xlink:href="#DejaVuSans-53"/>
       <use x="63.623047" xlink:href="#DejaVuSans-46"/>
       <use x="95.410156" xlink:href="#DejaVuSans-48"/>
      </g>
     </g>
    </g>
    <g id="ytick_7">
     <g id="line2d_29">
      <path clip-path="url(#pca3a77375f)" d="M 135 175.08272 
L 972 175.08272 
" style="fill:none;stroke:#b0b0b0;stroke-linecap:square;stroke-width:0.8;"/>
     </g>
     <g id="line2d_30">
      <g>
       <use style="stroke:#000000;stroke-width:0.8;" x="135" xlink:href="#m1244e89af3" y="175.08272"/>
      </g>
     </g>
     <g id="text_15">
      <!-- 7.5 -->
      <g transform="translate(112.096875 178.881938)scale(0.1 -0.1)">
       <use xlink:href="#DejaVuSans-55"/>
       <use x="63.623047" xlink:href="#DejaVuSans-46"/>
       <use x="95.410156" xlink:href="#DejaVuSans-53"/>
      </g>
     </g>
    </g>
    <g id="ytick_8">
     <g id="line2d_31">
      <path clip-path="url(#pca3a77375f)" d="M 135 100.983933 
L 972 100.983933 
" style="fill:none;stroke:#b0b0b0;stroke-linecap:square;stroke-width:0.8;"/>
     </g>
     <g id="line2d_32">
      <g>
       <use style="stroke:#000000;stroke-width:0.8;" x="135" xlink:href="#m1244e89af3" y="100.983933"/>
      </g>
     </g>
     <g id="text_16">
      <!-- 10.0 -->
      <g transform="translate(105.734375 104.783152)scale(0.1 -0.1)">
       <use xlink:href="#DejaVuSans-49"/>
       <use x="63.623047" xlink:href="#DejaVuSans-48"/>
       <use x="127.246094" xlink:href="#DejaVuSans-46"/>
       <use x="159.033203" xlink:href="#DejaVuSans-48"/>
      </g>
     </g>
    </g>
   </g>
   <g id="patch_3">
    <path d="M 135 630 
L 135 86.4 
" style="fill:none;stroke:#000000;stroke-linecap:square;stroke-linejoin:miter;stroke-width:0.8;"/>
   </g>
   <g id="patch_4">
    <path d="M 972 630 
L 972 86.4 
" style="fill:none;stroke:#000000;stroke-linecap:square;stroke-linejoin:miter;stroke-width:0.8;"/>
   </g>
   <g id="patch_5">
    <path d="M 135 630 
L 972 630 
" style="fill:none;stroke:#000000;stroke-linecap:square;stroke-linejoin:miter;stroke-width:0.8;"/>
   </g>
   <g id="patch_6">
    <path d="M 135 86.4 
L 972 86.4 
" style="fill:none;stroke:#000000;stroke-linecap:square;stroke-linejoin:miter;stroke-width:0.8;"/>
   </g>
   <g id="text_17">
    <!-- Colored Score Clusters - RT -->
    <defs>
     <path d="M 64.40625 67.28125 
L 64.40625 56.890625 
Q 59.421875 61.53125 53.78125 63.8125 
Q 48.140625 66.109375 41.796875 66.109375 
Q 29.296875 66.109375 22.65625 58.46875 
Q 16.015625 50.828125 16.015625 36.375 
Q 16.015625 21.96875 22.65625 14.328125 
Q 29.296875 6.6875 41.796875 6.6875 
Q 48.140625 6.6875 53.78125 8.984375 
Q 59.421875 11.28125 64.40625 15.921875 
L 64.40625 5.609375 
Q 59.234375 2.09375 53.4375 0.328125 
Q 47.65625 -1.421875 41.21875 -1.421875 
Q 24.65625 -1.421875 15.125 8.703125 
Q 5.609375 18.84375 5.609375 36.375 
Q 5.609375 53.953125 15.125 64.078125 
Q 24.65625 74.21875 41.21875 74.21875 
Q 47.75 74.21875 53.53125 72.484375 
Q 59.328125 70.75 64.40625 67.28125 
z
" id="DejaVuSans-67"/>
     <path d="M 30.609375 48.390625 
Q 23.390625 48.390625 19.1875 42.75 
Q 14.984375 37.109375 14.984375 27.296875 
Q 14.984375 17.484375 19.15625 11.84375 
Q 23.34375 6.203125 30.609375 6.203125 
Q 37.796875 6.203125 41.984375 11.859375 
Q 46.1875 17.53125 46.1875 27.296875 
Q 46.1875 37.015625 41.984375 42.703125 
Q 37.796875 48.390625 30.609375 48.390625 
z
M 30.609375 56 
Q 42.328125 56 49.015625 48.375 
Q 55.71875 40.765625 55.71875 27.296875 
Q 55.71875 13.875 49.015625 6.21875 
Q 42.328125 -1.421875 30.609375 -1.421875 
Q 18.84375 -1.421875 12.171875 6.21875 
Q 5.515625 13.875 5.515625 27.296875 
Q 5.515625 40.765625 12.171875 48.375 
Q 18.84375 56 30.609375 56 
z
" id="DejaVuSans-111"/>
     <path d="M 9.421875 75.984375 
L 18.40625 75.984375 
L 18.40625 0 
L 9.421875 0 
z
" id="DejaVuSans-108"/>
     <path d="M 41.109375 46.296875 
Q 39.59375 47.171875 37.8125 47.578125 
Q 36.03125 48 33.890625 48 
Q 26.265625 48 22.1875 43.046875 
Q 18.109375 38.09375 18.109375 28.8125 
L 18.109375 0 
L 9.078125 0 
L 9.078125 54.6875 
L 18.109375 54.6875 
L 18.109375 46.1875 
Q 20.953125 51.171875 25.484375 53.578125 
Q 30.03125 56 36.53125 56 
Q 37.453125 56 38.578125 55.875 
Q 39.703125 55.765625 41.0625 55.515625 
z
" id="DejaVuSans-114"/>
     <path d="M 56.203125 29.59375 
L 56.203125 25.203125 
L 14.890625 25.203125 
Q 15.484375 15.921875 20.484375 11.0625 
Q 25.484375 6.203125 34.421875 6.203125 
Q 39.59375 6.203125 44.453125 7.46875 
Q 49.3125 8.734375 54.109375 11.28125 
L 54.109375 2.78125 
Q 49.265625 0.734375 44.1875 -0.34375 
Q 39.109375 -1.421875 33.890625 -1.421875 
Q 20.796875 -1.421875 13.15625 6.1875 
Q 5.515625 13.8125 5.515625 26.8125 
Q 5.515625 40.234375 12.765625 48.109375 
Q 20.015625 56 32.328125 56 
Q 43.359375 56 49.78125 48.890625 
Q 56.203125 41.796875 56.203125 29.59375 
z
M 47.21875 32.234375 
Q 47.125 39.59375 43.09375 43.984375 
Q 39.0625 48.390625 32.421875 48.390625 
Q 24.90625 48.390625 20.390625 44.140625 
Q 15.875 39.890625 15.1875 32.171875 
z
" id="DejaVuSans-101"/>
     <path d="M 45.40625 46.390625 
L 45.40625 75.984375 
L 54.390625 75.984375 
L 54.390625 0 
L 45.40625 0 
L 45.40625 8.203125 
Q 42.578125 3.328125 38.25 0.953125 
Q 33.9375 -1.421875 27.875 -1.421875 
Q 17.96875 -1.421875 11.734375 6.484375 
Q 5.515625 14.40625 5.515625 27.296875 
Q 5.515625 40.1875 11.734375 48.09375 
Q 17.96875 56 27.875 56 
Q 33.9375 56 38.25 53.625 
Q 42.578125 51.265625 45.40625 46.390625 
z
M 14.796875 27.296875 
Q 14.796875 17.390625 18.875 11.75 
Q 22.953125 6.109375 30.078125 6.109375 
Q 37.203125 6.109375 41.296875 11.75 
Q 45.40625 17.390625 45.40625 27.296875 
Q 45.40625 37.203125 41.296875 42.84375 
Q 37.203125 48.484375 30.078125 48.484375 
Q 22.953125 48.484375 18.875 42.84375 
Q 14.796875 37.203125 14.796875 27.296875 
z
" id="DejaVuSans-100"/>
     <path id="DejaVuSans-32"/>
     <path d="M 53.515625 70.515625 
L 53.515625 60.890625 
Q 47.90625 63.578125 42.921875 64.890625 
Q 37.9375 66.21875 33.296875 66.21875 
Q 25.25 66.21875 20.875 63.09375 
Q 16.5 59.96875 16.5 54.203125 
Q 16.5 49.359375 19.40625 46.890625 
Q 22.3125 44.4375 30.421875 42.921875 
L 36.375 41.703125 
Q 47.40625 39.59375 52.65625 34.296875 
Q 57.90625 29 57.90625 20.125 
Q 57.90625 9.515625 50.796875 4.046875 
Q 43.703125 -1.421875 29.984375 -1.421875 
Q 24.8125 -1.421875 18.96875 -0.25 
Q 13.140625 0.921875 6.890625 3.21875 
L 6.890625 13.375 
Q 12.890625 10.015625 18.65625 8.296875 
Q 24.421875 6.59375 29.984375 6.59375 
Q 38.421875 6.59375 43.015625 9.90625 
Q 47.609375 13.234375 47.609375 19.390625 
Q 47.609375 24.75 44.3125 27.78125 
Q 41.015625 30.8125 33.5 32.328125 
L 27.484375 33.5 
Q 16.453125 35.6875 11.515625 40.375 
Q 6.59375 45.0625 6.59375 53.421875 
Q 6.59375 63.09375 13.40625 68.65625 
Q 20.21875 74.21875 32.171875 74.21875 
Q 37.3125 74.21875 42.625 73.28125 
Q 47.953125 72.359375 53.515625 70.515625 
z
" id="DejaVuSans-83"/>
     <path d="M 48.78125 52.59375 
L 48.78125 44.1875 
Q 44.96875 46.296875 41.140625 47.34375 
Q 37.3125 48.390625 33.40625 48.390625 
Q 24.65625 48.390625 19.8125 42.84375 
Q 14.984375 37.3125 14.984375 27.296875 
Q 14.984375 17.28125 19.8125 11.734375 
Q 24.65625 6.203125 33.40625 6.203125 
Q 37.3125 6.203125 41.140625 7.25 
Q 44.96875 8.296875 48.78125 10.40625 
L 48.78125 2.09375 
Q 45.015625 0.34375 40.984375 -0.53125 
Q 36.96875 -1.421875 32.421875 -1.421875 
Q 20.0625 -1.421875 12.78125 6.34375 
Q 5.515625 14.109375 5.515625 27.296875 
Q 5.515625 40.671875 12.859375 48.328125 
Q 20.21875 56 33.015625 56 
Q 37.15625 56 41.109375 55.140625 
Q 45.0625 54.296875 48.78125 52.59375 
z
" id="DejaVuSans-99"/>
     <path d="M 8.5 21.578125 
L 8.5 54.6875 
L 17.484375 54.6875 
L 17.484375 21.921875 
Q 17.484375 14.15625 20.5 10.265625 
Q 23.53125 6.390625 29.59375 6.390625 
Q 36.859375 6.390625 41.078125 11.03125 
Q 45.3125 15.671875 45.3125 23.6875 
L 45.3125 54.6875 
L 54.296875 54.6875 
L 54.296875 0 
L 45.3125 0 
L 45.3125 8.40625 
Q 42.046875 3.421875 37.71875 1 
Q 33.40625 -1.421875 27.6875 -1.421875 
Q 18.265625 -1.421875 13.375 4.4375 
Q 8.5 10.296875 8.5 21.578125 
z
M 31.109375 56 
z
" id="DejaVuSans-117"/>
     <path d="M 44.28125 53.078125 
L 44.28125 44.578125 
Q 40.484375 46.53125 36.375 47.5 
Q 32.28125 48.484375 27.875 48.484375 
Q 21.1875 48.484375 17.84375 46.4375 
Q 14.5 44.390625 14.5 40.28125 
Q 14.5 37.15625 16.890625 35.375 
Q 19.28125 33.59375 26.515625 31.984375 
L 29.59375 31.296875 
Q 39.15625 29.25 43.1875 25.515625 
Q 47.21875 21.78125 47.21875 15.09375 
Q 47.21875 7.46875 41.1875 3.015625 
Q 35.15625 -1.421875 24.609375 -1.421875 
Q 20.21875 -1.421875 15.453125 -0.5625 
Q 10.6875 0.296875 5.421875 2 
L 5.421875 11.28125 
Q 10.40625 8.6875 15.234375 7.390625 
Q 20.0625 6.109375 24.8125 6.109375 
Q 31.15625 6.109375 34.5625 8.28125 
Q 37.984375 10.453125 37.984375 14.40625 
Q 37.984375 18.0625 35.515625 20.015625 
Q 33.0625 21.96875 24.703125 23.78125 
L 21.578125 24.515625 
Q 13.234375 26.265625 9.515625 29.90625 
Q 5.8125 33.546875 5.8125 39.890625 
Q 5.8125 47.609375 11.28125 51.796875 
Q 16.75 56 26.8125 56 
Q 31.78125 56 36.171875 55.265625 
Q 40.578125 54.546875 44.28125 53.078125 
z
" id="DejaVuSans-115"/>
     <path d="M 18.3125 70.21875 
L 18.3125 54.6875 
L 36.8125 54.6875 
L 36.8125 47.703125 
L 18.3125 47.703125 
L 18.3125 18.015625 
Q 18.3125 11.328125 20.140625 9.421875 
Q 21.96875 7.515625 27.59375 7.515625 
L 36.8125 7.515625 
L 36.8125 0 
L 27.59375 0 
Q 17.1875 0 13.234375 3.875 
Q 9.28125 7.765625 9.28125 18.015625 
L 9.28125 47.703125 
L 2.6875 47.703125 
L 2.6875 54.6875 
L 9.28125 54.6875 
L 9.28125 70.21875 
z
" id="DejaVuSans-116"/>
     <path d="M 4.890625 31.390625 
L 31.203125 31.390625 
L 31.203125 23.390625 
L 4.890625 23.390625 
z
" id="DejaVuSans-45"/>
     <path d="M 44.390625 34.1875 
Q 47.5625 33.109375 50.5625 29.59375 
Q 53.5625 26.078125 56.59375 19.921875 
L 66.609375 0 
L 56 0 
L 46.6875 18.703125 
Q 43.0625 26.03125 39.671875 28.421875 
Q 36.28125 30.8125 30.421875 30.8125 
L 19.671875 30.8125 
L 19.671875 0 
L 9.8125 0 
L 9.8125 72.90625 
L 32.078125 72.90625 
Q 44.578125 72.90625 50.734375 67.671875 
Q 56.890625 62.453125 56.890625 51.90625 
Q 56.890625 45.015625 53.6875 40.46875 
Q 50.484375 35.9375 44.390625 34.1875 
z
M 19.671875 64.796875 
L 19.671875 38.921875 
L 32.078125 38.921875 
Q 39.203125 38.921875 42.84375 42.21875 
Q 46.484375 45.515625 46.484375 51.90625 
Q 46.484375 58.296875 42.84375 61.546875 
Q 39.203125 64.796875 32.078125 64.796875 
z
" id="DejaVuSans-82"/>
     <path d="M -0.296875 72.90625 
L 61.375 72.90625 
L 61.375 64.59375 
L 35.5 64.59375 
L 35.5 0 
L 25.59375 0 
L 25.59375 64.59375 
L -0.296875 64.59375 
z
" id="DejaVuSans-84"/>
    </defs>
    <g transform="translate(348.147656 80.160937)scale(0.3 -0.3)">
     <use xlink:href="#DejaVuSans-67"/>
     <use x="69.824219" xlink:href="#DejaVuSans-111"/>
     <use x="131.005859" xlink:href="#DejaVuSans-108"/>
     <use x="158.789062" xlink:href="#DejaVuSans-111"/>
     <use x="219.970703" xlink:href="#DejaVuSans-114"/>
     <use x="261.052734" xlink:href="#DejaVuSans-101"/>
     <use x="322.576172" xlink:href="#DejaVuSans-100"/>
     <use x="386.052734" xlink:href="#DejaVuSans-32"/>
     <use x="417.839844" xlink:href="#DejaVuSans-83"/>
     <use x="481.316406" xlink:href="#DejaVuSans-99"/>
     <use x="536.296875" xlink:href="#DejaVuSans-111"/>
     <use x="597.478516" xlink:href="#DejaVuSans-114"/>
     <use x="638.560547" xlink:href="#DejaVuSans-101"/>
     <use x="700.083984" xlink:href="#DejaVuSans-32"/>
     <use x="731.871094" xlink:href="#DejaVuSans-67"/>
     <use x="801.695312" xlink:href="#DejaVuSans-108"/>
     <use x="829.478516" xlink:href="#DejaVuSans-117"/>
     <use x="892.857422" xlink:href="#DejaVuSans-115"/>
     <use x="944.957031" xlink:href="#DejaVuSans-116"/>
     <use x="984.166016" xlink:href="#DejaVuSans-101"/>
     <use x="1045.689453" xlink:href="#DejaVuSans-114"/>
     <use x="1086.802734" xlink:href="#DejaVuSans-115"/>
     <use x="1138.902344" xlink:href="#DejaVuSans-32"/>
     <use x="1170.689453" xlink:href="#DejaVuSans-45"/>
     <use x="1206.773438" xlink:href="#DejaVuSans-32"/>
     <use x="1238.560547" xlink:href="#DejaVuSans-82"/>
     <use x="1307.933594" xlink:href="#DejaVuSans-84"/>
    </g>
   </g>
  </g>
 </g>
 <defs>
  <clipPath id="pca3a77375f">
   <rect height="543.6" width="837" x="135" y="86.4"/>
  </clipPath>
 </defs>
</svg>
