<?xml version="1.0" encoding="UTF-8" standalone="no"?>
<!-- Created with Inkscape (http://www.inkscape.org/) -->

<svg
   xmlns:dc="http://purl.org/dc/elements/1.1/"
   xmlns:cc="http://creativecommons.org/ns#"
   xmlns:rdf="http://www.w3.org/1999/02/22-rdf-syntax-ns#"
   xmlns:svg="http://www.w3.org/2000/svg"
   xmlns="http://www.w3.org/2000/svg"
   xmlns:sodipodi="http://sodipodi.sourceforge.net/DTD/sodipodi-0.dtd"
   xmlns:inkscape="http://www.inkscape.org/namespaces/inkscape"
   width="208.32576mm"
   height="102.2907mm"
   viewBox="0 0 208.32575 102.29069"
   version="1.1"
   id="svg8"
   inkscape:version="0.92.5 (2060ec1f9f, 2020-04-08)"
   sodipodi:docname="RL_basis.svg">
  <defs
     id="defs2">
    <marker
       inkscape:stockid="Arrow1Lend"
       orient="auto"
       refY="0"
       refX="0"
       id="Arrow1Lend"
       style="overflow:visible"
       inkscape:isstock="true">
      <path
         id="path4569"
         d="M 0,0 5,-5 -12.5,0 5,5 Z"
         style="fill:#000000;fill-opacity:1;fill-rule:evenodd;stroke:#000000;stroke-width:1.00000003pt;stroke-opacity:1"
         transform="matrix(-0.8,0,0,-0.8,-10,0)"
         inkscape:connector-curvature="0" />
    </marker>
    <marker
       inkscape:stockid="Arrow1Lend"
       orient="auto"
       refY="0"
       refX="0"
       id="Arrow1Lend-3"
       style="overflow:visible"
       inkscape:isstock="true">
      <path
         inkscape:connector-curvature="0"
         id="path4569-6"
         d="M 0,0 5,-5 -12.5,0 5,5 Z"
         style="fill:#000000;fill-opacity:1;fill-rule:evenodd;stroke:#000000;stroke-width:1.00000003pt;stroke-opacity:1"
         transform="matrix(-0.8,0,0,-0.8,-10,0)" />
    </marker>
  </defs>
  <sodipodi:namedview
     id="base"
     pagecolor="#ffffff"
     bordercolor="#666666"
     borderopacity="1.0"
     inkscape:pageopacity="0.0"
     inkscape:pageshadow="2"
     inkscape:zoom="0.98994949"
     inkscape:cx="385.73144"
     inkscape:cy="188.88102"
     inkscape:document-units="mm"
     inkscape:current-layer="layer1"
     showgrid="false"
     fit-margin-top="0"
     fit-margin-left="0"
     fit-margin-right="0"
     fit-margin-bottom="0"
     inkscape:window-width="1529"
     inkscape:window-height="994"
     inkscape:window-x="2635"
     inkscape:window-y="190"
     inkscape:window-maximized="0" />
  <metadata
     id="metadata5">
    <rdf:RDF>
      <cc:Work
         rdf:about="">
        <dc:format>image/svg+xml</dc:format>
        <dc:type
           rdf:resource="http://purl.org/dc/dcmitype/StillImage" />
        <dc:title></dc:title>
      </cc:Work>
    </rdf:RDF>
  </metadata>
  <g
     inkscape:label="Layer 1"
     inkscape:groupmode="layer"
     id="layer1"
     transform="translate(27.224516,-96.14937)">
    <g
       id="g4547"
       transform="matrix(0.1471167,0,0,0.1471167,6.6428821,110.56857)">
      <title
         id="title4542">Layer 1</title>
      <g
         id="svg_1">
        <path
           id="path563"
           d="m 212.828,128.61 -85.64,89.032 17.806,17.806 67.834,-72.073 0.849,121.25202 -58.507,180.60797 c 0,0 38.157,0.95102 39.005,-0.745 0.42301,-0.84799 42.39501,-167.143 44.09101,-169.68698 L 285.75,464.38699 h 36.45999 L 263.70401,285.47501 264.552,163.375 l 69.52899,70.37801 20.35102,-16.959 L 266.24799,128.61 Z"
           inkscape:connector-curvature="0"
           style="fill:#ffffff;fill-rule:evenodd;stroke:#000000;stroke-width:2" />
        <path
           id="path564"
           d="M 239.114,12.4448 C 159.409,14.1406 160.257,118.435 236.57001,119.283 318.819,119.283 321.362,13.2928 239.114,12.4448 Z"
           inkscape:connector-curvature="0"
           style="fill:#ffffff;fill-rule:evenodd;stroke:#000000;stroke-width:2" />
      </g>
    </g>
    <path
       style="fill:none;stroke:#000000;stroke-width:0.26499999;stroke-linecap:butt;stroke-linejoin:miter;stroke-miterlimit:4;stroke-dasharray:none;stroke-opacity:1;marker-end:url(#Arrow1Lend)"
       d="m 106.106,106.97136 c 0,0 -26.726952,-24.054253 -61.47199,0"
       id="path4564"
       inkscape:connector-curvature="0" />
    <path
       style="fill:none;stroke:#000000;stroke-width:0.33122864;stroke-linecap:butt;stroke-linejoin:miter;stroke-miterlimit:4;stroke-dasharray:none;stroke-opacity:1;marker-end:url(#Arrow1Lend-3)"
       d="m 44.995679,183.99413 c 0,0 31.25426,32.13632 71.884821,0"
       id="path4564-7"
       inkscape:connector-curvature="0" />
    <text
       xml:space="preserve"
       style="font-style:normal;font-weight:normal;font-size:10.58333302px;line-height:1.25;font-family:sans-serif;letter-spacing:0px;word-spacing:0px;fill:#000000;fill-opacity:1;stroke:none;stroke-width:0.26458332"
       x="89.535294"
       y="147.0618"
       id="text6525"><tspan
         sodipodi:role="line"
         id="tspan6523"
         x="89.535294"
         y="147.0618"
         style="stroke-width:0.26458332">Environment</tspan></text>
    <text
       xml:space="preserve"
       style="font-style:normal;font-weight:normal;font-size:10.58333302px;line-height:1.25;font-family:sans-serif;letter-spacing:0px;word-spacing:0px;fill:#000000;fill-opacity:1;stroke:none;stroke-width:0.26458332"
       x="54.790257"
       y="108.84225"
       id="text6529"><tspan
         sodipodi:role="line"
         id="tspan6527"
         x="54.790257"
         y="108.84225"
         style="font-size:7.05555534px;stroke-width:0.26458332">Observation</tspan></text>
    <text
       xml:space="preserve"
       style="font-style:normal;font-weight:normal;font-size:10.58333302px;line-height:1.25;font-family:sans-serif;letter-spacing:0px;word-spacing:0px;fill:#000000;fill-opacity:1;stroke:none;stroke-width:0.26458332"
       x="65.852028"
       y="192.70134"
       id="text6529-5"><tspan
         sodipodi:role="line"
         id="tspan6527-3"
         x="65.852028"
         y="192.70134"
         style="font-size:8.46666622px;stroke-width:0.26458332">Action</tspan></text>
    <text
       xml:space="preserve"
       style="font-style:normal;font-weight:normal;font-size:10.58333302px;line-height:1.25;font-family:sans-serif;letter-spacing:0px;word-spacing:0px;fill:#000000;fill-opacity:1;stroke:none;stroke-width:0.26458332"
       x="-8.9481096"
       y="152.07639"
       id="text6529-5-5"><tspan
         sodipodi:role="line"
         id="tspan6527-3-6"
         x="-8.9481096"
         y="152.07639"
         style="font-size:7.05555534px;stroke-width:0.26458332">Agent</tspan></text>
    <path
       style="fill:none;stroke:#000000;stroke-width:0.26458332px;stroke-linecap:butt;stroke-linejoin:miter;stroke-opacity:1"
       d="m 103.96784,123.00754 c 0.35636,0.0891 0.74054,0.10299 1.06908,0.26727 0.0797,0.0398 -0.063,0.20427 0,0.26726 0.063,0.063 0.17818,0 0.26727,0 0.53454,0 1.06908,0 1.60362,0 0.0891,0 0.17818,0 0.26727,0 0.0891,0 0.22743,0.0797 0.26727,0 0.0797,-0.15936 -0.0797,-0.37516 0,-0.53453 0.0221,-0.0441 0.7307,0 0.80181,0 0.0648,0 0.79321,0.009 0.80181,0 0.44545,-0.44545 -0.97999,-0.26727 0.53453,-0.26727 0.35636,0 0.71272,0 1.06908,0 0.0891,0 0.22743,0.0797 0.26727,0 0.0797,-0.15937 -0.12599,-0.40855 0,-0.53454 0.0107,-0.0107 1.18729,0 1.33635,0 0.0891,0 0.20427,0.063 0.26727,0 0.063,-0.063 -0.063,-0.20428 0,-0.26727 0.0828,-0.0828 1.25359,0.0828 1.33635,0 0.063,-0.063 -0.063,-0.20428 0,-0.26727 0.13363,-0.13364 0.66817,0.13363 0.80181,0 0.063,-0.063 -0.063,-0.20427 0,-0.26727 0.0643,-0.0643 1.00476,0.0643 1.06907,0 0.063,-0.063 -0.063,-0.20427 0,-0.26727 0.0643,-0.0643 1.00477,0.0643 1.06908,0 0.063,-0.063 -0.063,-0.20427 0,-0.26727 0.0643,-0.0643 1.00477,0.0643 1.06908,0 0.063,-0.063 -0.063,-0.20427 0,-0.26727 0.063,-0.063 0.17818,0 0.26727,0 0.62363,0 1.24726,0 1.87089,0 0.8018,0 1.60361,0 2.40542,0 0.0891,0 0.17818,0 0.26727,0 0.0891,0 0.20428,-0.063 0.26727,0 0.063,0.063 -0.063,0.20427 0,0.26727 0.0643,0.0643 1.00477,-0.0643 1.06908,0 0.063,0.063 -0.063,0.20427 0,0.26727 0.063,0.063 0.18758,-0.0398 0.26727,0 0.11269,0.0563 0.15458,0.21092 0.26727,0.26727 0.15937,0.0797 0.45485,-0.15937 0.53454,0 0.0797,0.15937 -0.12599,0.40855 0,0.53454 0.12599,0.12599 0.37517,-0.0797 0.53454,0 0.0797,0.0398 -0.063,0.20427 0,0.26727 0.0643,0.0643 1.00476,-0.0643 1.06908,0 0.063,0.063 -0.063,0.20427 0,0.26727 0.063,0.063 0.20427,-0.063 0.26726,0 0.063,0.063 -0.0797,0.22742 0,0.26727 0.31874,0.15936 0.75034,-0.15937 1.06908,0 0.0797,0.0398 -0.063,0.20427 0,0.26727 0.063,0.063 0.18275,-0.0282 0.26727,0 0.18899,0.063 0.34555,0.20427 0.53454,0.26727 0.0845,0.0282 0.20427,-0.063 0.26727,0 0.063,0.063 -0.0797,0.22742 0,0.26726 0.31874,0.15937 0.75034,-0.15936 1.06908,0 0.0797,0.0399 -0.063,0.20428 0,0.26728 0.12599,0.12599 0.40854,-0.126 0.53454,0 0.063,0.063 -0.063,0.20427 0,0.26726 0.12599,0.126 0.40854,-0.12599 0.53454,0 0.063,0.063 -0.063,0.20428 0,0.26727 0.12599,0.126 0.40854,-0.12599 0.53453,0 0.063,0.063 -0.0797,0.22743 0,0.26727 0.15937,0.0797 0.35636,0 0.53454,0 0.0891,0 0.20428,-0.063 0.26727,0 0.063,0.063 -0.063,0.20428 0,0.26727 0.126,0.126 0.40855,-0.12599 0.53454,0 0.063,0.063 -0.0797,0.22743 0,0.26727 0.15937,0.0797 0.35636,0 0.53454,0 0.0891,0 0.20428,-0.063 0.26727,0 0.063,0.063 -0.0797,0.22743 0,0.26727 0.15937,0.0797 0.35636,0 0.53454,0 0.0891,0 0.20427,-0.063 0.26727,0 0.063,0.063 -0.0797,0.22743 0,0.26727 0.15937,0.0797 0.35636,0 0.53454,0 0.0891,0 0.20427,-0.063 0.26727,0 0.063,0.063 -0.0797,0.22743 0,0.26727 0.15937,0.0797 0.35636,0 0.53454,0 0.17818,0 0.35636,0 0.53454,0 0.0891,0 0.22742,-0.0797 0.26727,0 0.0797,0.15937 -0.0797,0.37517 0,0.53454 0.0797,0.15937 0.45485,-0.15937 0.53454,0 0.0797,0.15937 -0.126,0.40855 0,0.53454 0.13363,0.13363 0.66817,-0.13364 0.80181,0 0.063,0.063 -0.0797,0.22743 0,0.26727 0.16111,0.0806 1.25639,-0.0799 1.33634,0 0.063,0.063 -0.063,0.20427 0,0.26727 0.12599,0.12599 0.40855,-0.12599 0.53454,0 0.063,0.063 -0.0797,0.22743 0,0.26727 0.0976,0.0488 1.28433,-0.052 1.33635,0 0.063,0.063 -0.0797,0.22742 0,0.26727 0.15937,0.0797 0.35636,0 0.53454,0 0.0891,0 0.20427,-0.063 0.26727,0 0.063,0.063 -0.063,0.20427 0,0.26727 0.063,0.063 0.17818,0 0.26727,0 0.17818,0 0.35636,0 0.53454,0 0.89089,0 1.78179,0 2.67269,0 0.13976,0 0.9988,0.0351 1.06908,0 0.11269,-0.0563 0.15458,-0.21093 0.26727,-0.26727 0.10597,-0.053 0.74717,0.0546 0.80181,0 0.063,-0.063 -0.0797,-0.22743 0,-0.26727 0.0707,-0.0354 1.34096,0 1.60361,0 0.0891,0 0.22743,0.0797 0.26727,0 0.0797,-0.15937 -0.0797,-0.37517 0,-0.53454 0.0797,-0.15937 0.45486,0.15937 0.53454,0 0.0797,-0.15937 -0.12599,-0.40855 0,-0.53454 0.0837,-0.0837 1.25296,0.0834 1.33635,0 0.063,-0.063 -0.0797,-0.22743 0,-0.26727 0.15937,-0.0797 0.35636,0 0.53454,0 0.0891,0 0.20427,0.063 0.26727,0 0.063,-0.063 -0.0797,-0.22743 0,-0.26727 0.17291,-0.0864 0.97307,0.096 1.06908,0 0.35636,-0.35636 -0.44545,-0.26727 0.26727,-0.26727 0.17818,0 0.35635,0 0.53454,0 0.0891,0 0.20427,0.063 0.26726,0 0.063,-0.063 -0.063,-0.20427 0,-0.26727 0.0933,-0.0933 0.74634,0.11094 0.80181,0 0.0797,-0.15937 -0.12599,-0.40855 0,-0.53454 0.12137,-0.12137 1.02685,0.0845 1.06908,0 0.0797,-0.15937 -0.0797,-0.37517 0,-0.53454 0.0797,-0.15937 0.40855,0.12599 0.53454,0 0.063,-0.063 -0.063,-0.20427 0,-0.26727 0.13364,-0.13363 0.66818,0.13364 0.80181,0 0.063,-0.063 -0.0797,-0.22742 0,-0.26727 0.17291,-0.0864 0.97307,0.096 1.06908,0 0.063,-0.063 -0.063,-0.20427 0,-0.26726 0.0828,-0.0828 1.25358,0.0828 1.33634,0 0.063,-0.063 -0.063,-0.20428 0,-0.26728 0.063,-0.063 0.17818,0 0.26728,0 0.0891,0 0.17817,0 0.26726,0 0.80181,0 1.60362,0 2.40543,0 0.0891,0 0.17818,0 0.26727,0 0.0891,0 0.20427,-0.063 0.26727,0 0.063,0.063 -0.063,0.20428 0,0.26728 0.0828,0.0828 1.25359,-0.0828 1.33635,0 0.063,0.063 -0.0797,0.22742 0,0.26726 0.0976,0.0488 1.28432,-0.052 1.33634,0 0.063,0.063 -0.063,0.20428 0,0.26727 0.063,0.063 0.17818,0 0.26727,0 0.0891,0 0.17818,0 0.26727,0 0.0891,0 0.17818,0 0.26727,0 0.0891,0 0.22743,-0.0797 0.26727,0 0.0797,0.15937 -0.12599,0.40855 0,0.53454 0.11071,0.37798 0.61282,-0.18899 0.80181,0 0.063,0.063 -0.063,0.20428 0,0.26727 0.063,0.063 0.17818,0 0.26727,0 0.35636,0 0.71272,0 1.06908,0 0.0891,0 0.20427,-0.063 0.26727,0 0.063,0.063 -0.063,0.20428 0,0.26727 0.0643,0.0643 1.00476,-0.0643 1.06908,0 0.063,0.063 -0.063,0.20428 0,0.26727 0.0819,0.0819 1.25375,-0.0826 1.33634,0 0.063,0.063 -0.063,0.20427 0,0.26727 0.126,0.12599 0.40855,-0.12599 0.53454,0 0.063,0.063 -0.063,0.20427 0,0.26727 0.063,0.063 0.20428,-0.063 0.26727,0 0.063,0.063 -0.0797,0.22743 0,0.26727 0.15937,0.0797 0.35636,0 0.53454,0 0.17818,0 0.35636,0 0.53454,0 0.0891,0 0.22743,-0.0797 0.26727,0 0.0797,0.15937 -0.0797,0.37517 0,0.53454 0.0398,0.0797 0.22743,-0.0797 0.26727,0 0.0797,0.15937 -0.12599,0.40855 0,0.53454 0.12599,0.12599 0.37517,-0.0797 0.53454,0 0.0797,0.0398 -0.063,0.20427 0,0.26727 0.12599,0.12599 0.40854,-0.126 0.53454,0 0.063,0.063 -0.063,0.20427 0,0.26727 0.063,0.063 0.20427,-0.063 0.26727,0 0.063,0.063 -0.0797,0.22742 0,0.26727 0.15936,0.0797 0.37517,-0.0797 0.53454,0 0.0797,0.0398 -0.0797,0.22742 0,0.26727 0.15937,0.0797 0.35636,0 0.53454,0 0.0891,0 0.20427,-0.063 0.26727,0 0,0.71271 -0.0891,-0.0891 0.26726,0.26726 0.063,0.063 -0.063,0.20428 0,0.26728 0.063,0.063 0.20428,-0.063 0.26727,0 0.063,0.063 -0.0797,0.22742 0,0.26726 0.26589,0.13295 0.74894,-0.10574 0.80181,0 0.0797,0.15937 -0.0797,0.37518 0,0.53454 0.0398,0.0797 0.20428,-0.063 0.26727,0 0.063,0.063 -0.063,0.20428 0,0.26727 0.063,0.063 0.20428,-0.063 0.26727,0 0.063,0.063 -0.063,0.20428 0,0.26727 0.063,0.063 0.20427,-0.063 0.26727,0 0,0.71272 -0.0891,-0.0891 0.26727,0.26727 0.12599,0.12599 -0.15937,0.45486 0,0.53454 1.51453,0 0.0891,-0.17818 0.53454,0.26727 0.063,0.063 0.20427,-0.063 0.26727,0 0.12599,0.12599 -0.12599,0.40855 0,0.53454 0.063,0.063 0.20427,-0.063 0.26727,0 0.12599,0.12599 -0.12599,0.40855 0,0.53454 0.063,0.063 0.20427,-0.063 0.26727,0 0.063,0.063 0,0.17818 0,0.26727 0,0.0891 0,0.17818 0,0.26727 0,0.71272 0,1.42543 0,2.13816 0,0.71271 0.0891,-0.0891 -0.26727,0.26726 -0.13364,0.13364 0.13363,0.66818 0,0.80181 -0.063,0.063 -0.20428,-0.063 -0.26727,0 -0.12599,0.126 0.12599,0.40855 0,0.53454 -0.063,0.063 -0.20427,-0.063 -0.26727,0 -0.12599,0.12599 0.12599,0.40855 0,0.53454 -0.063,0.063 -0.22743,-0.0797 -0.26727,0 -0.0797,0.15937 0.0797,0.37517 0,0.53454 -0.0398,0.0797 -0.20427,-0.063 -0.26727,0 -0.0691,0.0691 0.0691,0.7327 0,0.80181 -0.12599,0.12599 -0.40855,-0.12599 -0.53454,0 -0.13363,0.13363 0.13364,0.66817 0,0.80181 -0.063,0.063 -0.20427,-0.063 -0.26727,0 -0.063,0.063 0.063,0.20427 0,0.26727 -0.063,0.063 -0.20427,-0.063 -0.26727,0 -2.5e-4,2.5e-4 5.3e-4,0.80059 0,0.80181 -0.0398,0.11952 -0.21092,0.15457 -0.26727,0.26726 -0.0398,0.0797 0.063,0.20428 0,0.26727 -0.063,0.063 -0.20427,-0.063 -0.26727,0 -0.12599,0.126 0.126,0.40855 0,0.53454 -0.063,0.063 -0.20427,-0.063 -0.26727,0 -0.0933,0.0933 0.11095,0.74634 0,0.80181 -0.15937,0.0797 -0.40854,-0.12599 -0.53453,0 -0.0837,0.0837 0.0834,1.25296 0,1.33635 -0.063,0.063 -0.20428,-0.063 -0.26727,0 -0.063,0.063 0,0.17818 0,0.26727 0,0.62363 0,1.24726 0,1.87089 0,0.12601 -0.0121,1.32423 0,1.33634 0.063,0.063 0.20427,-0.063 0.26727,0 0.13363,0.13364 -0.13364,0.66818 0,0.80181 0.063,0.063 0.20427,-0.063 0.26726,0 0.0643,0.0643 -0.0643,1.00477 0,1.06908 0.063,0.063 0.22743,-0.0797 0.26727,0 0.0865,0.17291 -0.096,0.97307 0,1.06908 0.063,0.063 0.20428,-0.063 0.26727,0 0.0828,0.0828 -0.0828,1.25359 0,1.33634 0.063,0.063 0.20428,-0.063 0.26727,0 0.063,0.063 0,0.17819 0,0.26727 0,0.44545 0,0.8909 0,1.33635 0,0.0891 0,0.17818 0,0.26727 0,0.0891 0.063,0.20428 0,0.26727 -0.063,0.063 -0.20427,-0.063 -0.26727,0 -0.12599,0.12599 0.126,0.40855 0,0.53454 -0.063,0.063 -0.20427,-0.063 -0.26727,0 -0.063,0.063 0.063,0.20427 0,0.26727 -0.063,0.063 -0.20427,-0.063 -0.26727,0 -0.063,0.063 0.063,0.20427 0,0.26727 -0.12599,0.12599 -0.40854,-0.12599 -0.53453,0 -0.063,0.063 0.063,0.20427 0,0.26727 -0.126,0.12599 -0.40855,-0.12599 -0.53454,0 -0.063,0.063 0.063,0.20427 0,0.26727 -0.13364,0.13363 -0.66818,-0.13364 -0.80181,0 -0.063,0.063 0.063,0.20427 0,0.26727 -0.126,0.12599 -0.45486,-0.15937 -0.53454,0 -0.0797,0.15937 0.12599,0.40854 0,0.53454 -0.0107,0.0107 -1.18729,0 -1.33635,0 -0.0891,0 -0.20427,-0.063 -0.26727,0 -0.063,0.063 0.063,0.20427 0,0.26727 -0.0643,0.0643 -1.00476,-0.0643 -1.06908,0 -0.063,0.063 0.063,0.20427 0,0.26727 -0.0643,0.0643 -1.00476,-0.0643 -1.06908,0 -0.063,0.063 0.063,0.20427 0,0.26727 -0.0643,0.0643 -1.00476,-0.0643 -1.06907,0 -0.063,0.063 0.063,0.20427 0,0.26726 -0.13364,0.13364 -0.66818,-0.13363 -0.80181,0 -0.063,0.063 0.063,0.20428 0,0.26728 -0.12599,0.12599 -0.40855,-0.126 -0.53454,0 -0.063,0.063 0.063,0.20427 0,0.26726 -0.12599,0.126 -0.40855,-0.12599 -0.53454,0 -0.063,0.063 0.0797,0.22743 0,0.26727 -0.85558,0.42779 -0.2135,-0.42779 -1.06908,0 -0.0797,0.0399 0.063,0.20428 0,0.26727 -0.063,0.063 -0.20427,-0.063 -0.26727,0 -0.063,0.063 0.063,0.20428 0,0.26727 -0.063,0.063 -0.20427,-0.063 -0.26727,0 -0.063,0.063 0.063,0.20428 0,0.26727 -0.063,0.063 -0.20427,-0.063 -0.26727,0 -0.063,0.063 0.063,0.20428 0,0.26727 -0.063,0.063 -0.17818,0 -0.26727,0 0,0.0891 0.063,0.20428 0,0.26727 -0.063,0.063 -0.20427,-0.063 -0.26727,0 -0.063,0.063 0.063,0.20427 0,0.26727 -0.063,0.063 -0.20427,-0.063 -0.26726,0 -0.063,0.063 0.063,0.20427 0,0.26727 -0.063,0.063 -0.20428,-0.063 -0.26727,0 -0.063,0.063 0.063,0.20427 0,0.26727 -0.063,0.063 -0.22743,-0.0797 -0.26727,0 -0.0797,0.15937 0.0563,0.3655 0,0.53454 -0.0399,0.11953 -0.21093,0.15458 -0.26727,0.26727 -0.0398,0.0797 0.063,0.20427 0,0.26727 -0.063,0.063 -0.20428,-0.063 -0.26727,0 -0.063,0.063 0.0398,0.18758 0,0.26727 -0.11269,0.22538 -0.42185,0.30915 -0.53454,0.53454 -0.0398,0.0797 0.063,0.20427 0,0.26727 -0.063,0.063 -0.20427,-0.063 -0.26727,0 -0.063,0.063 0,0.17818 0,0.26726 -0.0891,0 -0.20428,-0.063 -0.26727,0 -0.12599,0.126 0.15937,0.45486 0,0.53454 -0.15937,0.0797 -0.40855,-0.12599 -0.53454,0 -0.12599,0.126 0.0797,0.37518 0,0.53454 -0.0398,0.0797 -0.20427,-0.063 -0.26727,0 -0.063,0.063 0.063,0.20428 0,0.26727 -0.063,0.063 -0.20427,-0.063 -0.26727,0 -0.063,0.063 0.063,0.20428 0,0.26727 -0.063,0.063 -0.20427,-0.063 -0.26727,0 -0.13363,0.13364 0.13364,0.66818 0,0.80181 -0.12599,0.12599 -0.40855,-0.12599 -0.53454,0 -0.12599,0.12599 0.0797,0.37517 0,0.53454 -0.0398,0.0797 -0.20427,-0.063 -0.26727,0 -0.063,0.063 0.0398,0.18759 0,0.26727 -0.0563,0.11269 -0.21092,0.15458 -0.26727,0.26727 -0.0398,0.0797 0.063,0.20427 0,0.26727 -0.063,0.063 -0.17818,0 -0.26727,0 0,0.0891 0.063,0.20427 0,0.26727 -0.063,0.063 -0.20427,-0.063 -0.26727,0 -0.12599,0.12599 0.15937,0.45485 0,0.53454 -0.15936,0.0797 -0.40854,-0.12599 -0.53454,0 -0.12599,0.12599 0.0797,0.37517 0,0.53454 -0.0398,0.0797 -0.20427,-0.063 -0.26727,0 -0.063,0.063 0.063,0.20427 0,0.26727 -0.063,0.063 -0.20427,-0.063 -0.26726,0 -0.063,0.063 0.063,0.20427 0,0.26727 -0.063,0.063 -0.17818,0 -0.26727,0 0,0.0891 0.063,0.20427 0,0.26726 -0.063,0.063 -0.20428,-0.063 -0.26727,0 -0.063,0.063 0.0797,0.22743 0,0.26727 -0.15937,0.0797 -0.40855,-0.12599 -0.53454,0 -0.12599,0.126 0.0797,0.37517 0,0.53454 -0.0399,0.0797 -0.18759,-0.0398 -0.26727,0 -1.11231,0.55616 0.28572,-0.0184 -0.26727,0.53454 -0.12599,0.12599 -0.40855,-0.12599 -0.53454,0 -0.063,0.063 0.063,0.20428 0,0.26727 -0.063,0.063 -0.20427,-0.063 -0.26727,0 -0.063,0.063 0.063,0.20427 0,0.26727 -0.0828,0.0828 -1.25359,-0.0828 -1.33635,0 -0.063,0.063 0.0797,0.22743 0,0.26727 -0.15936,0.0797 -0.35636,0 -0.53454,0 -0.17818,0 -0.35636,0 -0.53454,0 -0.8018,0 -1.60361,0 -2.40542,0 -1.60362,0 -3.20724,0 -4.81085,0 -0.0648,0 -0.79322,0.009 -0.80181,0 -0.063,-0.063 0.0797,-0.22743 0,-0.26727 -0.0782,-0.0391 -1.38486,0 -1.60362,0 -0.0891,0 -0.17818,0 -0.26727,0 -0.0891,0 -0.20427,0.063 -0.26727,0 -0.063,-0.063 0.063,-0.20427 0,-0.26727 -0.13363,-0.13363 -0.66817,0.13364 -0.80181,0 -0.063,-0.063 0.0797,-0.22742 0,-0.26727 -0.15936,-0.0797 -0.35636,0 -0.53454,0 -0.0891,0 -0.20427,0.063 -0.26726,0 -0.063,-0.063 0.063,-0.20427 0,-0.26727 -0.126,-0.12599 -0.40855,0.12599 -0.53454,0 -0.063,-0.063 0.063,-0.20427 0,-0.26727 -0.12599,-0.12599 -0.40855,0.126 -0.53454,0 -0.063,-0.063 0.063,-0.20427 0,-0.26726 -0.12599,-0.126 -0.40855,0.12599 -0.53454,0 -0.063,-0.063 0.063,-0.20428 0,-0.26728 -0.12599,-0.12599 -0.45486,0.15937 -0.53454,0 -0.15937,-0.31873 0.15937,-0.75034 0,-1.06907 -0.0555,-0.11095 -0.70852,0.0933 -0.80181,0 -0.063,-0.063 0.063,-0.20428 0,-0.26727 -0.063,-0.063 -0.20427,0.063 -0.26727,0 -0.063,-0.063 0.063,-0.20428 0,-0.26727 -0.063,-0.063 -0.20427,0.063 -0.26727,0 -0.063,-0.063 0.0797,-0.22743 0,-0.26727 -0.85259,-0.42629 -0.21649,0.42629 -1.06908,0 -0.0797,-0.0398 0.063,-0.20428 0,-0.26727 -0.063,-0.063 -0.20427,0.063 -0.26726,0 -0.063,-0.063 0.0797,-0.22743 0,-0.26727 -0.85259,-0.4263 -0.2165,0.42629 -1.06908,0 -0.0797,-0.0398 0.063,-0.20428 0,-0.26727 -0.063,-0.063 -0.20428,0.063 -0.26727,0 -0.063,-0.063 0.063,-0.20427 0,-0.26727 -0.126,-0.12599 -0.40855,0.12599 -0.53454,0 -0.063,-0.063 0.063,-0.20427 0,-0.26727 -0.12599,-0.12599 -0.40855,0.12599 -0.53454,0 -0.063,-0.063 0.063,-0.20427 0,-0.26727 -0.12599,-0.12599 -0.40855,0.12599 -0.53454,0 -0.063,-0.063 0.063,-0.20427 0,-0.26727 -0.0933,-0.0933 -0.74634,0.11094 -0.80181,0 -0.0797,-0.15937 0.0797,-0.37517 0,-0.53454 -0.0398,-0.0797 -0.17818,0 -0.26727,0 -0.44545,0 -0.8909,0 -1.33635,0 -0.0711,0 -0.77974,0.0441 -0.8018,0 -0.0797,-0.15937 0.12599,-0.40854 0,-0.53454 -0.126,-0.12599 -0.35636,0 -0.53454,0 -0.71272,0 -1.42544,0 -2.13816,0 -0.0711,0 -0.77974,-0.0441 -0.80181,0 -0.0797,0.15937 0.12599,0.40855 0,0.53454 -0.0144,0.0144 -1.43618,0 -1.60362,0 -0.0648,0 -0.79321,-0.009 -0.8018,0 -0.063,0.063 0.063,0.20428 0,0.26727 -0.0828,0.0828 -1.25359,-0.0828 -1.33635,0 -0.063,0.063 0.0797,0.22743 0,0.26727 -0.17291,0.0865 -0.97307,-0.096 -1.06908,0 -0.063,0.063 0.0797,0.22743 0,0.26727 -0.0976,0.0488 -1.28433,-0.052 -1.33635,0 -0.063,0.063 0.063,0.20427 0,0.26727 -0.13363,0.13364 -0.66817,-0.13363 -0.80181,0 -0.063,0.063 0.0797,0.22743 0,0.26727 -0.17291,0.0865 -0.97307,-0.096 -1.06907,0 -0.063,0.063 0.063,0.20427 0,0.26727 -0.126,0.12599 -0.40855,-0.12599 -0.53454,0 -0.063,0.063 0.0797,0.22743 0,0.26727 -0.15937,0.0797 -0.35636,0 -0.53454,0 -0.17818,0 -0.35636,0 -0.53454,0 -0.0891,0 -0.22743,-0.0797 -0.26727,0 -0.0797,0.15937 0.0797,0.37517 0,0.53454 -0.0398,0.0797 -0.17818,0 -0.26727,0 -0.0891,0 -0.17818,0 -0.26727,0 -0.0891,0 -0.20427,-0.063 -0.26727,0 -0.063,0.063 0.0797,0.22742 0,0.26727 -0.23905,0.11952 -0.53454,0 -0.80181,0 -0.0891,0 -0.22742,-0.0797 -0.26727,0 -0.0797,0.15937 0.0797,0.37517 0,0.53454 -0.0797,0.15936 -0.40854,-0.126 -0.53454,0 -0.063,0.063 0.0797,0.22742 0,0.26727 -0.15937,0.0797 -0.35636,0 -0.53454,0 -0.0891,0 -0.20427,-0.063 -0.26727,0 -0.063,0.063 0.063,0.20427 0,0.26727 -0.0933,0.0933 -0.74633,-0.11095 -0.8018,0 -0.0797,0.15937 0.0797,0.37516 0,0.53453 -0.0535,0.10691 -0.74836,-0.1069 -0.80181,0 -0.0797,0.15937 0.12599,0.40855 0,0.53454 -0.0935,0.0935 -0.70827,-0.0935 -0.80181,0 -0.063,0.063 0.063,0.20428 0,0.26727 -0.0546,0.0546 -0.69584,-0.053 -0.80181,0 -0.11269,0.0564 -0.15458,0.21093 -0.26727,0.26727 -0.15937,0.0797 -0.40855,-0.12599 -0.53454,0 -0.063,0.063 0.063,0.20428 0,0.26727 -0.13363,0.13364 -0.66817,-0.13363 -0.80181,0 -0.063,0.063 0.0797,0.22743 0,0.26727 -0.15936,0.0797 -0.35636,0 -0.53454,0 -0.53454,0 -1.06907,0 -1.60361,0 -0.0891,0 -0.17818,0 -0.26727,0 -0.0891,0 -0.22743,0.0797 -0.26727,0 -0.0797,-0.15937 0.0797,-0.37517 0,-0.53454 -0.0797,-0.15937 -0.40855,0.12599 -0.53454,0 -0.063,-0.063 0.0797,-0.22742 0,-0.26727 -0.16112,-0.0806 -1.2564,0.0799 -1.33635,0 -0.063,-0.063 0.063,-0.20427 0,-0.26727 -0.12599,-0.12599 -0.37517,0.0797 -0.53454,0 -0.11269,-0.0563 -0.15458,-0.21092 -0.26727,-0.26726 -0.0797,-0.0399 -0.18758,0.0398 -0.26727,0 -0.11269,-0.0564 -0.15457,-0.21093 -0.26727,-0.26728 -0.15937,-0.0797 -0.45485,0.15937 -0.53454,0 -0.0797,-0.15937 0.126,-0.40854 0,-0.53453 -0.12599,-0.126 -0.37516,0.0797 -0.53453,0 -0.0797,-0.0399 0.0797,-0.22743 0,-0.26727 -0.15937,-0.0797 -0.40855,0.12599 -0.53454,0 -0.126,-0.12599 0.0797,-0.37517 0,-0.53454 -0.0529,-0.10575 -0.53592,0.13294 -0.80181,0 -0.0797,-0.0398 0.0797,-0.22743 0,-0.26727 -0.15937,-0.0797 -0.37517,0.0797 -0.53454,0 -0.0797,-0.0399 0.063,-0.20428 0,-0.26727 -0.063,-0.063 -0.20428,0.063 -0.26727,0 -0.063,-0.063 0.063,-0.20428 0,-0.26727 -0.12599,-0.12599 -0.45486,0.15937 -0.53454,0 -0.0797,-0.15937 0.12599,-0.40855 0,-0.53454 -0.12599,-0.12599 -0.37517,0.0797 -0.53454,0 -0.0797,-0.0398 0.063,-0.20427 0,-0.26727 -0.063,-0.063 -0.20427,0.063 -0.26727,0 -0.063,-0.063 0.063,-0.20427 0,-0.26727 -0.063,-0.063 -0.227425,0.0797 -0.267268,0 0,-1.51453 0.178178,-0.0891 -0.267269,-0.53454 -0.063,-0.063 0.07968,-0.22743 0,-0.26727 -0.159369,-0.0797 -0.35636,0 -0.534541,0 -0.08909,0 -0.204271,0.063 -0.267268,0 -0.063,-0.063 0.04942,-0.19314 0,-0.26727 0.659516,-0.80915 -0.726991,-0.45972 -0.80181,-0.53454 -0.06299,-0.063 0.063,-0.20427 0,-0.26727 -0.125992,-0.12599 -0.408545,0.126 -0.534537,0 -0.063,-0.063 0.06299,-0.20427 0,-0.26727 -0.063,-0.063 -0.204275,0.063 -0.267269,0 -0.063,-0.063 0.07968,-0.22742 0,-0.26727 -0.159369,-0.0797 -0.375171,0.0797 -0.534541,0 -0.712718,-0.35635 0.80181,-0.26726 -0.267268,-0.26726 -0.08909,0 -0.227428,0.0797 -0.267269,0 -0.07968,-0.15937 0.07968,-0.37518 0,-0.53454 -0.03984,-0.0797 -0.204275,0.063 -0.267272,0 -0.06299,-0.063 0.063,-0.20428 0,-0.26727 -0.125992,-0.126 -0.408546,0.12599 -0.534537,0 -0.063,-0.063 0,-0.17818 0,-0.26727 -0.08909,0 -0.204275,0.063 -0.267269,0 -0.063,-0.063 0.06299,-0.20428 0,-0.26727 -0.133636,-0.13364 -0.668176,0.13363 -0.80181,0 -0.063,-0.063 0.063,-0.20428 0,-0.26727 -0.125991,-0.12599 -0.408548,0.12599 -0.53454,0 -0.06299,-0.063 0.063,-0.20428 0,-0.26727 -0.133633,-0.13364 -0.668173,0.13363 -0.801806,0 -0.063,-0.063 0.06299,-0.20428 0,-0.26727 -0.125992,-0.12599 -0.408549,0.12599 -0.534541,0 -0.06299,-0.063 0.063,-0.20427 0,-0.26727 -0.05538,-0.0554 -1.054793,0.0286 -1.069078,0 -0.07968,-0.15937 0.125992,-0.40855 0,-0.53454 -0.06431,-0.0643 -1.004766,0.0643 -1.069078,0 -0.063,-0.063 0.063,-0.20427 0,-0.26727 -0.08276,-0.0828 -1.253588,0.0828 -1.336347,0 -0.063,-0.063 0.07968,-0.22743 0,-0.26727 -0.159369,-0.0797 -0.356359,0 -0.53454,0 -0.44545,0 -0.890897,0 -1.336347,0 -0.08909,0 -0.178181,0 -0.267269,0 -0.08909,0 -0.204274,0.063 -0.267271,0 -0.063,-0.063 0.07968,-0.22743 0,-0.26727 -0.06285,-0.0314 -0.893501,0 -1.069078,0 -0.712719,0 -1.425438,0 -2.138157,0 -1.425437,0 -2.850874,0 -4.276312,0 -0.06482,0 -0.793213,0.009 -0.801806,0 -0.063,-0.063 0.06299,-0.20427 0,-0.26727 -0.125992,-0.12599 -0.408549,0.12599 -0.534541,0 -0.06299,-0.063 0.063,-0.20427 0,-0.26727 -0.06299,-0.063 -0.204274,0.063 -0.267268,0 -0.063,-0.063 0.06299,-0.20427 0,-0.26727 -0.063,-0.063 -0.178181,0 -0.267269,0 0,-0.0891 0.06299,-0.20427 0,-0.26727 -0.063,-0.063 -0.204275,0.063 -0.267272,0 -0.06299,-0.063 0.063,-0.20427 0,-0.26727 -0.06299,-0.063 -0.204271,0.063 -0.267269,0 -0.06299,-0.063 0.063,-0.20427 0,-0.26726 -0.06299,-0.063 -0.204274,0.063 -0.267269,0 -0.125991,-0.126 0.125992,-0.40855 0,-0.53454 -0.712718,0 0.08909,0.0891 -0.267268,-0.26727 -0.063,-0.063 -0.204275,0.063 -0.267272,0 -0.125992,-0.126 0.125992,-0.40855 0,-0.53454 -0.063,-0.063 -0.204271,0.063 -0.267269,0 -0.133635,-0.13364 0.133636,-0.66818 0,-0.80181 -0.06299,-0.063 -0.204274,0.063 -0.267269,0 -0.125992,-0.12599 0.125992,-0.40855 0,-0.53454 -0.063,-0.063 -0.204274,0.063 -0.267268,0 -0.08194,-0.0819 0.0826,-1.25375 0,-1.33635 -0.35636,-0.35636 -0.267272,0.44545 -0.267272,-0.26727 0,-0.35636 0,-0.71272 0,-1.06907 0,-0.0891 0.07968,-0.22743 0,-0.26728 -0.159369,-0.0797 -0.375169,0.0797 -0.534538,0 -0.07968,-0.0398 0,-0.17817 0,-0.26727 0,-0.35635 0,-0.71271 0,-1.06907 0,-0.0891 0.07968,-0.22743 0,-0.26727 -0.159369,-0.0797 -0.408548,0.12599 -0.53454,0 -0.125992,-0.12599 0,-0.35636 0,-0.53454 0,-0.44545 0,-0.8909 0,-1.33635 0,-1.24726 0,-2.49451 0,-3.74177 0,-0.0891 0,-0.17818 0,-0.26727 0,-0.0891 -0.063,-0.20428 0,-0.26727 0.063,-0.063 0.204274,0.063 0.267272,0 0.06299,-0.063 0,-0.17818 0,-0.26727 0,-0.12602 -0.01212,-1.32423 0,-1.33635 0.06299,-0.063 0.204271,0.063 0.267268,0 0.0086,-0.009 0,-0.73699 0,-0.80181 0,-0.0891 0,-0.17818 0,-0.26727 0,-0.0891 -0.063,-0.20427 0,-0.26727 0.35636,-0.35636 0.267269,0.44545 0.267269,-0.26727 0,-0.0711 -0.04413,-0.77974 0,-0.8018 0.159369,-0.0797 0.408546,0.12599 0.534541,0 0.06431,-0.0643 -0.06432,-1.00477 0,-1.06908 0.06299,-0.063 0.204271,0.063 0.267268,0 0.133634,-0.13364 -0.133635,-0.66818 0,-0.80181 0.35636,-0.35636 0.267269,0.44545 0.267269,-0.26727 0,-0.71272 -0.08909,0.0891 0.267269,-0.26727 0.125992,-0.12599 -0.125992,-0.40855 0,-0.53454 0.063,-0.063 0.178181,0 0.267272,0 0,-0.0891 -0.063,-0.20427 0,-0.26727 0.06299,-0.063 0.204271,0.063 0.267268,0 0.125992,-0.12599 -0.125991,-0.40854 0,-0.53454 0.712719,0 -0.08909,0.0891 0.267269,-0.26727 0.063,-0.063 0.204275,0.063 0.267269,0 0.063,-0.063 0,-0.17818 0,-0.26727 0,-0.17818 -0.07968,-0.37517 0,-0.53453 0.03984,-0.0797 0.204274,0.063 0.267272,0 0,-0.71273 -0.08909,0.0891 0.267269,-0.26728 0.06299,-0.063 -0.063,-0.20427 0,-0.26726 0.06299,-0.063 0.204274,0.063 0.267268,0 0.063,-0.063 0,-0.17819 0,-0.26727 0.08909,0 0.204275,0.063 0.267269,0 0.063,-0.063 -0.06299,-0.20428 0,-0.26728 0.125992,-0.12599 0.408549,0.126 0.534541,0 0.06299,-0.063 -0.07968,-0.22742 0,-0.26726 0.159369,-0.0797 0.375168,0.0797 0.534537,0 0.07968,-0.0399 -0.06299,-0.20428 0,-0.26727 0.125992,-0.12599 0.408549,0.12599 0.534541,0 0.356359,-0.35636 -0.44545,-0.26727 0.267268,-0.26727 0.07111,0 0.779741,0.0441 0.80181,0 0.07968,-0.15937 -0.125992,-0.40855 0,-0.53454 0.01437,-0.0144 1.436182,0 1.603615,0 0.08909,0 0.204275,0.063 0.267272,0 0.063,-0.063 -0.063,-0.20428 0,-0.26727 0.0086,-0.009 0.736989,0 0.801806,0 1.425438,0 2.850875,0 4.276313,0 0.712718,0 1.42544,0 2.138158,0 0.08909,0 0.204272,0.063 0.267269,0 0.063,-0.063 -0.063,-0.20428 0,-0.26727 0.133633,-0.13364 0.668174,0.13363 0.801809,0 0.063,-0.063 -0.063,-0.20427 0,-0.26727 0.09329,-0.0933 0.746337,0.11094 0.801807,0 0.07968,-0.15937 -0.125992,-0.40855 0,-0.53454 0.133636,-0.13363 0.668173,0.13364 0.801809,0 0.063,-0.063 -0.06299,-0.20427 0,-0.26727 0.125992,-0.12599 0.408549,0.12599 0.534541,0 0.06299,-0.063 0,-0.17818 0,-0.26727 0.08909,0 0.204271,0.063 0.267268,0 0.063,-0.063 -0.07968,-0.22742 0,-0.26727 0.318739,-0.15937 0.75034,0.15937 1.069078,0 0.07968,-0.0398 -0.063,-0.20427 0,-0.26727 0.063,-0.063 0.204275,0.063 0.267269,0 0.063,-0.063 -0.06299,-0.20427 0,-0.26727 0.125992,-0.12599 0.408549,0.126 0.534541,0 0.06299,-0.063 -0.063,-0.20427 0,-0.26727 0.06299,-0.063 0.204271,0.063 0.267269,0 0.06299,-0.063 -0.063,-0.20427 0,-0.26727 0.06299,-0.063 0.204274,0.063 0.267268,0 0.063,-0.063 -0.06299,-0.20427 0,-0.26727 0.063,-0.063 0.178181,0 0.267269,0 0,-0.0891 -0.06299,-0.20427 0,-0.26726 0.063,-0.063 0.204274,0.063 0.267272,0 0.06299,-0.063 -0.063,-0.20428 0,-0.26728 0.06299,-0.063 0.227425,0.0797 0.267269,0 0.07968,-0.15936 -0.125992,-0.40854 0,-0.53453 0.110707,-0.37798 0.61282,0.18898 0.801809,0 0.06299,-0.063 -0.063,-0.20428 0,-0.26727 0.06299,-0.063 0.204271,0.063 0.267269,0 0.06299,-0.063 0,-0.17818 0,-0.26727 0.08909,0 0.204274,0.063 0.267268,0 0.063,-0.063 -0.06299,-0.20428 0,-0.26727 0.063,-0.063 0.204275,0.063 0.267269,0 0.063,-0.063 -0.06299,-0.20428 0,-0.26727 0.063,-0.063 0.204275,0.063 0.267272,0 0.06299,-0.063 -0.063,-0.20428 0,-0.26727 0.06299,-0.063 0.204271,0.063 0.267269,0 0.06299,-0.063 -0.063,-0.20427 0,-0.26727 0.06299,-0.063 0.178178,0 0.267269,0 0,-0.0891 -0.063,-0.20427 0,-0.26727 0.063,-0.063 0.204274,0.063 0.267268,0 0.063,-0.063 -0.06299,-0.20427 0,-0.26727 0.063,-0.063 0.204275,0.063 0.267272,0 0,-0.71272 -0.08909,0.0891 0.267269,-0.26727 0.06299,-0.063 -0.07969,-0.22743 0,-0.26727 0.159369,-0.0797 0.408547,0.12599 0.534537,0 0.12599,-0.12599 -0.0797,-0.37517 0,-0.53454 0.0555,-0.11094 0.70852,0.0933 0.80181,0 0.12599,-0.12599 -0.12599,-0.40855 0,-0.53454 0.063,-0.063 0.20427,0.063 0.26727,0 0.063,-0.063 -0.063,-0.20427 0,-0.26727 0.0643,-0.0643 1.00476,0.0643 1.06908,0 0.063,-0.063 -0.063,-0.20427 0,-0.26727 0.063,-0.063 0.20427,0.063 0.26727,0 0.063,-0.063 -0.063,-0.20427 0,-0.26726 0.12599,-0.126 0.40854,0.12599 0.53454,0 0.063,-0.063 0,-0.17819 0,-0.26728 0.26727,-0.17817 0.53454,-0.35636 0.8018,-0.53453 z"
       id="path6567"
       inkscape:connector-curvature="0" />
    <text
       xml:space="preserve"
       style="font-style:normal;font-weight:normal;font-size:10.58333302px;line-height:1.25;font-family:sans-serif;letter-spacing:0px;word-spacing:0px;fill:#000000;fill-opacity:1;stroke:none;stroke-width:0.26458332"
       x="-27.830853"
       y="160.98941"
       id="text6529-5-5-3"><tspan
         sodipodi:role="line"
         id="tspan6527-3-6-6"
         x="-27.830853"
         y="160.98941"
         style="font-size:7.05555534px;stroke-width:0.26458332">(Neural Network)</tspan></text>
  </g>
</svg>
